<svg xmlns="http://www.w3.org/2000/svg" xmlns:xlink="http://www.w3.org/1999/xlink" width="3000" height="1500" viewBox="0 0 3000 1500"><defs><style>.cls-1,.cls-100,.cls-101,.cls-102,.cls-103,.cls-104,.cls-105,.cls-106,.cls-107,.cls-108,.cls-109,.cls-11,.cls-110,.cls-111,.cls-112,.cls-113,.cls-114,.cls-115,.cls-116,.cls-117,.cls-118,.cls-119,.cls-12,.cls-120,.cls-121,.cls-122,.cls-123,.cls-124,.cls-125,.cls-126,.cls-127,.cls-128,.cls-129,.cls-13,.cls-130,.cls-131,.cls-132,.cls-133,.cls-134,.cls-135,.cls-136,.cls-137,.cls-138,.cls-139,.cls-14,.cls-140,.cls-141,.cls-142,.cls-143,.cls-144,.cls-145,.cls-146,.cls-147,.cls-148,.cls-149,.cls-15,.cls-16,.cls-17,.cls-18,.cls-19,.cls-2,.cls-20,.cls-21,.cls-22,.cls-23,.cls-24,.cls-25,.cls-26,.cls-27,.cls-28,.cls-29,.cls-3,.cls-30,.cls-31,.cls-32,.cls-33,.cls-34,.cls-35,.cls-36,.cls-37,.cls-38,.cls-39,.cls-4,.cls-40,.cls-41,.cls-42,.cls-43,.cls-44,.cls-45,.cls-46,.cls-47,.cls-48,.cls-49,.cls-5,.cls-50,.cls-51,.cls-52,.cls-53,.cls-54,.cls-55,.cls-56,.cls-57,.cls-58,.cls-59,.cls-6,.cls-60,.cls-61,.cls-62,.cls-63,.cls-64,.cls-65,.cls-66,.cls-67,.cls-68,.cls-69,.cls-7,.cls-70,.cls-71,.cls-72,.cls-74,.cls-75,.cls-76,.cls-77,.cls-78,.cls-79,.cls-8,.cls-80,.cls-81,.cls-82,.cls-83,.cls-84,.cls-85,.cls-86,.cls-87,.cls-88,.cls-89,.cls-9,.cls-90,.cls-91,.cls-92,.cls-93,.cls-94,.cls-95,.cls-96,.cls-97,.cls-98,.cls-99{stroke:#000;stroke-miterlimit:10;}.cls-1{fill:url(#linear-gradient);}.cls-2{fill:url(#linear-gradient-2);}.cls-3{fill:#f9cfaa;}.cls-4{fill:url(#linear-gradient-3);}.cls-5{fill:url(#linear-gradient-4);}.cls-6{fill:url(#linear-gradient-5);}.cls-8{fill:#efefef;stroke-width:0.25px;}.cls-9{fill:url(#linear-gradient-6);}.cls-10{fill:none;}.cls-11{fill:url(#linear-gradient-7);}.cls-12{fill:url(#linear-gradient-8);}.cls-13{fill:url(#linear-gradient-9);}.cls-14{fill:url(#linear-gradient-10);}.cls-15{fill:url(#linear-gradient-11);}.cls-16{fill:url(#linear-gradient-12);}.cls-17{fill:url(#linear-gradient-13);}.cls-18{fill:url(#linear-gradient-14);}.cls-19{fill:url(#linear-gradient-15);}.cls-20{fill:url(#linear-gradient-16);}.cls-21{fill:url(#linear-gradient-17);}.cls-22{fill:url(#linear-gradient-18);}.cls-23{fill:url(#linear-gradient-19);}.cls-24{fill:url(#linear-gradient-20);}.cls-25{fill:url(#linear-gradient-21);}.cls-26{fill:url(#linear-gradient-22);}.cls-27{fill:url(#linear-gradient-23);}.cls-28{fill:url(#linear-gradient-24);}.cls-29{fill:url(#linear-gradient-25);}.cls-30{fill:url(#linear-gradient-26);}.cls-31{fill:url(#linear-gradient-27);}.cls-32{fill:url(#linear-gradient-28);}.cls-33{fill:url(#linear-gradient-29);}.cls-34{fill:url(#linear-gradient-30);}.cls-35{fill:url(#linear-gradient-31);}.cls-36{fill:url(#linear-gradient-32);}.cls-37{fill:url(#linear-gradient-33);}.cls-38{fill:url(#linear-gradient-34);}.cls-39{fill:url(#linear-gradient-35);}.cls-40{fill:url(#linear-gradient-36);}.cls-41{fill:url(#linear-gradient-37);}.cls-42{fill:url(#linear-gradient-38);}.cls-43{fill:url(#linear-gradient-39);}.cls-44{fill:url(#linear-gradient-40);}.cls-45{fill:url(#linear-gradient-41);}.cls-46{fill:url(#linear-gradient-42);}.cls-47{fill:url(#linear-gradient-43);}.cls-48{fill:url(#linear-gradient-44);}.cls-49{fill:url(#linear-gradient-45);}.cls-50{fill:url(#linear-gradient-46);}.cls-51{fill:url(#linear-gradient-47);}.cls-52{fill:url(#linear-gradient-48);}.cls-53{fill:url(#linear-gradient-49);}.cls-54{fill:url(#linear-gradient-50);}.cls-55{fill:url(#linear-gradient-51);}.cls-56{fill:url(#linear-gradient-52);}.cls-57{fill:url(#linear-gradient-53);}.cls-58{fill:url(#linear-gradient-54);}.cls-59{fill:url(#linear-gradient-55);}.cls-60{fill:url(#linear-gradient-56);}.cls-61{fill:url(#linear-gradient-57);}.cls-62{fill:url(#linear-gradient-58);}.cls-63{fill:url(#linear-gradient-59);}.cls-64{fill:url(#linear-gradient-60);}.cls-65{fill:url(#linear-gradient-61);}.cls-66{fill:url(#linear-gradient-62);}.cls-67{fill:url(#linear-gradient-63);}.cls-68{fill:url(#linear-gradient-64);}.cls-69{fill:url(#linear-gradient-65);}.cls-70{fill:url(#linear-gradient-66);}.cls-71{fill:url(#linear-gradient-67);}.cls-72{fill:url(#linear-gradient-68);}.cls-73{fill:#f4912c;}.cls-74{fill:url(#linear-gradient-69);}.cls-75{fill:url(#linear-gradient-70);}.cls-76{fill:url(#linear-gradient-71);}.cls-77{fill:url(#linear-gradient-72);}.cls-78{fill:url(#linear-gradient-73);}.cls-79{fill:url(#linear-gradient-74);}.cls-80{fill:url(#linear-gradient-75);}.cls-81{fill:url(#linear-gradient-76);}.cls-82{fill:url(#linear-gradient-77);}.cls-83{fill:url(#linear-gradient-78);}.cls-84{fill:url(#linear-gradient-79);}.cls-85{fill:url(#linear-gradient-80);}.cls-86{fill:url(#linear-gradient-81);}.cls-87{fill:url(#linear-gradient-82);}.cls-88{fill:url(#linear-gradient-83);}.cls-89{fill:url(#linear-gradient-84);}.cls-90{fill:url(#linear-gradient-85);}.cls-91{fill:url(#linear-gradient-86);}.cls-92{fill:url(#linear-gradient-87);}.cls-93{fill:url(#linear-gradient-88);}.cls-94{fill:url(#linear-gradient-89);}.cls-95{fill:url(#linear-gradient-90);}.cls-96{fill:url(#linear-gradient-91);}.cls-97{fill:url(#linear-gradient-92);}.cls-98{fill:url(#linear-gradient-93);}.cls-99{fill:url(#linear-gradient-94);}.cls-100{fill:url(#linear-gradient-95);}.cls-101{fill:url(#linear-gradient-96);}.cls-102{fill:url(#linear-gradient-97);}.cls-103{fill:url(#linear-gradient-98);}.cls-104{fill:url(#linear-gradient-99);}.cls-105{fill:url(#linear-gradient-100);}.cls-106{fill:url(#linear-gradient-101);}.cls-107{fill:url(#linear-gradient-102);}.cls-108{fill:url(#linear-gradient-103);}.cls-109{fill:url(#linear-gradient-104);}.cls-110{fill:url(#linear-gradient-105);}.cls-111{fill:url(#linear-gradient-106);}.cls-112{fill:url(#linear-gradient-107);}.cls-113{fill:url(#linear-gradient-108);}.cls-114{fill:url(#linear-gradient-109);}.cls-115{fill:url(#linear-gradient-110);}.cls-116{fill:url(#linear-gradient-111);}.cls-117{fill:url(#linear-gradient-112);}.cls-118{fill:url(#linear-gradient-113);}.cls-119{fill:url(#linear-gradient-114);}.cls-120{fill:url(#linear-gradient-115);}.cls-121{fill:url(#linear-gradient-116);}.cls-122{fill:url(#linear-gradient-117);}.cls-123{fill:url(#linear-gradient-118);}.cls-124{fill:url(#linear-gradient-119);}.cls-125{fill:url(#linear-gradient-120);}.cls-126{fill:url(#linear-gradient-121);}.cls-127{fill:url(#linear-gradient-122);}.cls-128{fill:url(#linear-gradient-123);}.cls-129{fill:url(#linear-gradient-124);}.cls-130{fill:url(#linear-gradient-125);}.cls-131{fill:url(#linear-gradient-126);}.cls-132{fill:url(#linear-gradient-127);}.cls-133{fill:url(#linear-gradient-128);}.cls-134{fill:url(#linear-gradient-129);}.cls-135{fill:url(#linear-gradient-130);}.cls-136{fill:url(#linear-gradient-131);}.cls-137{fill:url(#linear-gradient-132);}.cls-138{fill:url(#linear-gradient-133);}.cls-139{fill:url(#linear-gradient-134);}.cls-140{fill:url(#linear-gradient-135);}.cls-141{fill:url(#linear-gradient-136);}.cls-142{fill:url(#linear-gradient-137);}.cls-143{fill:url(#linear-gradient-138);}.cls-144{fill:url(#linear-gradient-139);}.cls-145{fill:url(#linear-gradient-140);}.cls-146{fill:url(#linear-gradient-141);}.cls-147{fill:url(#linear-gradient-142);}.cls-148{fill:url(#linear-gradient-143);}.cls-149{fill:url(#linear-gradient-144);}</style><linearGradient id="linear-gradient" x1="148.44" y1="21.4479" x2="148.44" y2="298.0387" gradientUnits="userSpaceOnUse"><stop offset="0" stop-color="#f4912c"/><stop offset="0.4013" stop-color="#f18d29"/><stop offset="0.7959" stop-color="#e68121"/><stop offset="1" stop-color="#de781a"/></linearGradient><linearGradient id="linear-gradient-2" x1="146.04" y1="284.7176" x2="146.04" y2="242" gradientUnits="userSpaceOnUse"><stop offset="0" stop-color="#f49d2c"/><stop offset="0.2755" stop-color="#f1982a"/><stop offset="0.5999" stop-color="#e98a25"/><stop offset="0.9479" stop-color="#db721c"/><stop offset="1" stop-color="#d96e1a"/></linearGradient><linearGradient id="linear-gradient-3" x1="150.2091" y1="296.08" x2="150.2091" y2="450.96" gradientUnits="userSpaceOnUse"><stop offset="0" stop-color="#0d0d5b"/><stop offset="0.2827" stop-color="#0e0f5e"/><stop offset="0.5041" stop-color="#0f1668"/><stop offset="0.7046" stop-color="#122379"/><stop offset="0.8917" stop-color="#173390"/><stop offset="1" stop-color="#1a40a1"/></linearGradient><linearGradient id="linear-gradient-4" x1="116.9782" y1="442.0993" x2="97.7991" y2="475.3185" gradientUnits="userSpaceOnUse"><stop offset="0" stop-color="#f6f"/><stop offset="0.3713" stop-color="#f667fd"/><stop offset="0.9723" stop-color="#de6bf7"/><stop offset="0.9977" stop-color="#dd6bf7"/></linearGradient><linearGradient id="linear-gradient-5" x1="198.1635" y1="446.1553" x2="182.7363" y2="472.876" xlink:href="#linear-gradient-4"/><linearGradient id="linear-gradient-6" x1="148.76" y1="110.1086" x2="148.76" y2="103.8441" gradientUnits="userSpaceOnUse"><stop offset="0" stop-color="#8b0404"/><stop offset="0.5705" stop-color="#3d0202"/><stop offset="1"/></linearGradient><linearGradient id="linear-gradient-7" x1="1348.44" y1="21.4479" x2="1348.44" y2="298.0387" xlink:href="#linear-gradient"/><linearGradient id="linear-gradient-8" x1="1346.04" y1="284.7176" x2="1346.04" xlink:href="#linear-gradient-2"/><linearGradient id="linear-gradient-9" x1="1350.2091" y1="296.08" x2="1350.2091" y2="450.96" xlink:href="#linear-gradient-3"/><linearGradient id="linear-gradient-10" x1="1316.9782" y1="442.0993" x2="1297.7991" y2="475.3185" xlink:href="#linear-gradient-4"/><linearGradient id="linear-gradient-11" x1="1398.1635" y1="446.1553" x2="1382.7363" y2="472.876" xlink:href="#linear-gradient-4"/><linearGradient id="linear-gradient-12" x1="1348.76" y1="110.1086" x2="1348.76" y2="103.8441" xlink:href="#linear-gradient-6"/><linearGradient id="linear-gradient-13" x1="440.94" y1="28.4479" x2="440.94" y2="305.0387" xlink:href="#linear-gradient"/><linearGradient id="linear-gradient-14" x1="434.04" y1="291.7176" x2="434.04" y2="249" xlink:href="#linear-gradient-2"/><linearGradient id="linear-gradient-15" x1="438.9446" y1="303.08" x2="438.9446" y2="450.96" xlink:href="#linear-gradient-3"/><linearGradient id="linear-gradient-16" x1="416.9782" y1="442.0993" x2="397.7991" y2="475.3185" xlink:href="#linear-gradient-4"/><linearGradient id="linear-gradient-17" x1="486.1635" y1="446.1553" x2="470.7363" y2="472.876" xlink:href="#linear-gradient-4"/><linearGradient id="linear-gradient-18" x1="440.76" y1="117.1086" x2="440.76" y2="110.8441" xlink:href="#linear-gradient-6"/><linearGradient id="linear-gradient-19" x1="1040.94" y1="28.4479" x2="1040.94" y2="305.0387" xlink:href="#linear-gradient"/><linearGradient id="linear-gradient-20" x1="1034.04" y1="291.7176" x2="1034.04" y2="249" xlink:href="#linear-gradient-2"/><linearGradient id="linear-gradient-21" x1="1038.9446" y1="303.08" x2="1038.9446" y2="450.96" xlink:href="#linear-gradient-3"/><linearGradient id="linear-gradient-22" x1="1016.9782" y1="442.0993" x2="997.7991" y2="475.3185" xlink:href="#linear-gradient-4"/><linearGradient id="linear-gradient-23" x1="1086.1635" y1="446.1553" x2="1070.7363" y2="472.876" xlink:href="#linear-gradient-4"/><linearGradient id="linear-gradient-24" x1="1040.76" y1="117.1086" x2="1040.76" y2="110.8441" xlink:href="#linear-gradient-6"/><linearGradient id="linear-gradient-25" x1="738.7875" y1="32.4479" x2="738.7875" y2="309.0387" xlink:href="#linear-gradient"/><linearGradient id="linear-gradient-26" x1="726.04" y1="295.7176" x2="726.04" y2="253" xlink:href="#linear-gradient-2"/><linearGradient id="linear-gradient-27" x1="731.0471" y1="307.08" x2="731.0471" y2="451.96" xlink:href="#linear-gradient-3"/><linearGradient id="linear-gradient-28" x1="716.9782" y1="442.0993" x2="697.7991" y2="475.3185" xlink:href="#linear-gradient-4"/><linearGradient id="linear-gradient-29" x1="778.1635" y1="447.1553" x2="762.7363" y2="473.876" xlink:href="#linear-gradient-4"/><linearGradient id="linear-gradient-30" x1="732.76" y1="121.1086" x2="732.76" y2="114.8441" xlink:href="#linear-gradient-6"/><linearGradient id="linear-gradient-31" x1="1658.5" y1="27.4485" x2="1658.5" y2="305.0387" xlink:href="#linear-gradient"/><linearGradient id="linear-gradient-32" x1="1659.04" y1="291.7176" x2="1659.04" y2="249" xlink:href="#linear-gradient-2"/><linearGradient id="linear-gradient-33" x1="1647.72" y1="303.08" x2="1647.72" y2="448.273" xlink:href="#linear-gradient-3"/><linearGradient id="linear-gradient-34" x1="1059.4506" y1="90.9619" x2="1040.2715" y2="124.1811" gradientTransform="translate(608.9948 61.1049) rotate(16.2242)" xlink:href="#linear-gradient-4"/><linearGradient id="linear-gradient-35" x1="1706.1635" y1="443.1553" x2="1690.7363" y2="469.876" xlink:href="#linear-gradient-4"/><linearGradient id="linear-gradient-36" x1="1653.76" y1="116.1086" x2="1653.76" y2="109.8441" xlink:href="#linear-gradient-6"/><linearGradient id="linear-gradient-37" x1="2858.5" y1="27.4485" x2="2858.5" y2="305.0387" xlink:href="#linear-gradient"/><linearGradient id="linear-gradient-38" x1="2859.04" y1="291.7176" x2="2859.04" y2="249" xlink:href="#linear-gradient-2"/><linearGradient id="linear-gradient-39" x1="2847.72" y1="303.08" x2="2847.72" y2="448.273" xlink:href="#linear-gradient-3"/><linearGradient id="linear-gradient-40" x1="2211.6615" y1="-244.3144" x2="2192.4824" y2="-211.0952" gradientTransform="translate(608.9948 61.1049) rotate(16.2242)" xlink:href="#linear-gradient-4"/><linearGradient id="linear-gradient-41" x1="2906.1635" y1="443.1553" x2="2890.7363" y2="469.876" xlink:href="#linear-gradient-4"/><linearGradient id="linear-gradient-42" x1="2853.76" y1="116.1086" x2="2853.76" y2="109.8441" xlink:href="#linear-gradient-6"/><linearGradient id="linear-gradient-43" x1="1952.7402" y1="33.4485" x2="1952.7402" y2="311.0387" xlink:href="#linear-gradient"/><linearGradient id="linear-gradient-44" x1="1969.04" y1="297.7176" x2="1969.04" y2="255" xlink:href="#linear-gradient-2"/><linearGradient id="linear-gradient-45" x1="1944.2307" y1="309.08" x2="1944.2307" y2="450.5" xlink:href="#linear-gradient-3"/><linearGradient id="linear-gradient-46" x1="403.5548" y1="-298.078" x2="384.3758" y2="-264.8589" gradientTransform="translate(1381.437 424.4603) rotate(38.9249)" xlink:href="#linear-gradient-4"/><linearGradient id="linear-gradient-47" x1="2014.1635" y1="444.1553" x2="1998.7363" y2="470.876" xlink:href="#linear-gradient-4"/><linearGradient id="linear-gradient-48" x1="1947.76" y1="122.1086" x2="1947.76" y2="115.8441" xlink:href="#linear-gradient-6"/><linearGradient id="linear-gradient-49" x1="2552.7402" y1="33.4485" x2="2552.7402" y2="311.0387" xlink:href="#linear-gradient"/><linearGradient id="linear-gradient-50" x1="2569.04" y1="297.7176" x2="2569.04" y2="255" xlink:href="#linear-gradient-2"/><linearGradient id="linear-gradient-51" x1="2544.2307" y1="309.08" x2="2544.2307" y2="450.5" xlink:href="#linear-gradient-3"/><linearGradient id="linear-gradient-52" x1="870.3367" y1="-675.0591" x2="851.1576" y2="-641.84" gradientTransform="translate(1381.437 424.4603) rotate(38.9249)" xlink:href="#linear-gradient-4"/><linearGradient id="linear-gradient-53" x1="2614.1635" y1="444.1553" x2="2598.7363" y2="470.876" xlink:href="#linear-gradient-4"/><linearGradient id="linear-gradient-54" x1="2547.76" y1="122.1086" x2="2547.76" y2="115.8441" xlink:href="#linear-gradient-6"/><linearGradient id="linear-gradient-55" x1="2251.1748" y1="37.4485" x2="2251.1748" y2="315.0387" xlink:href="#linear-gradient"/><linearGradient id="linear-gradient-56" x1="2276.04" y1="301.7176" x2="2276.04" y2="261" xlink:href="#linear-gradient-2"/><linearGradient id="linear-gradient-57" x1="2245.6287" y1="313.08" x2="2245.6287" y2="450.96" xlink:href="#linear-gradient-3"/><linearGradient id="linear-gradient-58" x1="625.8453" y1="-489.1722" x2="606.6662" y2="-455.953" gradientTransform="translate(1381.437 424.4603) rotate(38.9249)" xlink:href="#linear-gradient-4"/><linearGradient id="linear-gradient-59" x1="2324.1635" y1="446.1553" x2="2308.7363" y2="472.876" xlink:href="#linear-gradient-4"/><linearGradient id="linear-gradient-60" x1="2236.76" y1="126.1086" x2="2236.76" y2="119.8441" xlink:href="#linear-gradient-6"/><linearGradient id="linear-gradient-61" x1="184" y1="671.3985" x2="184" y2="752.5" xlink:href="#linear-gradient"/><linearGradient id="linear-gradient-62" x1="143.5561" y1="529.3593" x2="143.5561" y2="798.0387" xlink:href="#linear-gradient"/><linearGradient id="linear-gradient-63" x1="171.5808" y1="785.6262" x2="171.5808" y2="742.5" xlink:href="#linear-gradient-2"/><linearGradient id="linear-gradient-64" x1="146.3678" y1="796.08" x2="146.3678" y2="950.96" xlink:href="#linear-gradient-3"/><linearGradient id="linear-gradient-65" x1="125.7849" y1="943.4097" x2="107.3886" y2="975.2731" xlink:href="#linear-gradient-4"/><linearGradient id="linear-gradient-66" x1="182.0727" y1="947.0538" x2="167.3899" y2="972.4853" xlink:href="#linear-gradient-4"/><linearGradient id="linear-gradient-67" x1="170.6267" y1="610.1086" x2="170.6267" y2="603.8441" xlink:href="#linear-gradient-6"/><linearGradient id="linear-gradient-68" x1="129.4738" y1="626.5" x2="129.4738" y2="750.5388" xlink:href="#linear-gradient"/><linearGradient id="linear-gradient-69" x1="488" y1="671.3911" x2="488" y2="748.5" xlink:href="#linear-gradient"/><linearGradient id="linear-gradient-70" x1="443.5561" y1="529.3593" x2="443.5561" y2="798.0387" xlink:href="#linear-gradient"/><linearGradient id="linear-gradient-71" x1="471.5808" y1="785.6262" x2="471.5808" y2="742.5" xlink:href="#linear-gradient-2"/><linearGradient id="linear-gradient-72" x1="450.1167" y1="796.08" x2="450.1167" y2="951.96" xlink:href="#linear-gradient-3"/><linearGradient id="linear-gradient-73" x1="-87.4584" y1="924.1561" x2="-105.8548" y2="956.0195" gradientTransform="translate(860.9974 132.6296) rotate(23.1051)" xlink:href="#linear-gradient-4"/><linearGradient id="linear-gradient-74" x1="787.8611" y1="1056.23" x2="773.1783" y2="1081.6615" gradientTransform="translate(-522.3828 112.1263) rotate(-14.0702)" xlink:href="#linear-gradient-4"/><linearGradient id="linear-gradient-75" x1="471.5" y1="607.5" x2="471.5" y2="603.5" xlink:href="#linear-gradient-6"/><linearGradient id="linear-gradient-76" x1="436.4758" y1="626.5" x2="436.4758" y2="746.5442" xlink:href="#linear-gradient"/><linearGradient id="linear-gradient-77" x1="793.5" y1="669.7985" x2="793.5" y2="728.5" xlink:href="#linear-gradient"/><linearGradient id="linear-gradient-78" x1="747.3488" y1="528.3593" x2="747.3488" y2="798.0387" xlink:href="#linear-gradient"/><linearGradient id="linear-gradient-79" x1="775.5808" y1="783.6262" x2="775.5808" y2="740.5" xlink:href="#linear-gradient-2"/><linearGradient id="linear-gradient-80" x1="748.518" y1="796.08" x2="748.518" y2="956.5" xlink:href="#linear-gradient-3"/><linearGradient id="linear-gradient-81" x1="413.7268" y1="840.376" x2="395.3304" y2="872.2394" gradientTransform="translate(503.8182 33.8114) rotate(13.3352)" xlink:href="#linear-gradient-4"/><linearGradient id="linear-gradient-82" x1="465.1284" y1="837.4842" x2="450.4456" y2="862.9157" gradientTransform="translate(546.3899 24.9009) rotate(14.4225)" xlink:href="#linear-gradient-4"/><linearGradient id="linear-gradient-83" x1="752.8678" y1="625.5" x2="752.8678" y2="752.5084" xlink:href="#linear-gradient"/><linearGradient id="linear-gradient-84" x1="782" y1="603.5" x2="782" y2="600.5" xlink:href="#linear-gradient-6"/><linearGradient id="linear-gradient-85" x1="152.2701" y1="1021.4479" x2="152.2701" y2="1298.0387" xlink:href="#linear-gradient"/><linearGradient id="linear-gradient-86" x1="146.04" y1="1284.7176" x2="146.04" y2="1242" xlink:href="#linear-gradient-2"/><linearGradient id="linear-gradient-87" x1="148.4052" y1="1297.08" x2="148.4052" y2="1451.96" xlink:href="#linear-gradient-3"/><linearGradient id="linear-gradient-88" x1="123.9782" y1="1443.0993" x2="104.7991" y2="1476.3185" xlink:href="#linear-gradient-4"/><linearGradient id="linear-gradient-89" x1="188.1635" y1="1447.1553" x2="172.7363" y2="1473.876" xlink:href="#linear-gradient-4"/><linearGradient id="linear-gradient-90" x1="149.0688" y1="1113.66" x2="149.0688" y2="1108.3391" xlink:href="#linear-gradient-6"/><linearGradient id="linear-gradient-91" x1="752.2701" y1="1021.4479" x2="752.2701" y2="1298.0387" xlink:href="#linear-gradient"/><linearGradient id="linear-gradient-92" x1="746.04" y1="1284.7176" x2="746.04" y2="1242" xlink:href="#linear-gradient-2"/><linearGradient id="linear-gradient-93" x1="748.4052" y1="1297.08" x2="748.4052" y2="1451.96" xlink:href="#linear-gradient-3"/><linearGradient id="linear-gradient-94" x1="723.9782" y1="1443.0993" x2="704.7991" y2="1476.3185" xlink:href="#linear-gradient-4"/><linearGradient id="linear-gradient-95" x1="788.1635" y1="1447.1553" x2="772.7363" y2="1473.876" xlink:href="#linear-gradient-4"/><linearGradient id="linear-gradient-96" x1="749.0688" y1="1113.66" x2="749.0688" y2="1108.3391" xlink:href="#linear-gradient-6"/><linearGradient id="linear-gradient-97" x1="1352.2701" y1="1021.4479" x2="1352.2701" y2="1298.0387" xlink:href="#linear-gradient"/><linearGradient id="linear-gradient-98" x1="1346.04" y1="1284.7176" x2="1346.04" y2="1242" xlink:href="#linear-gradient-2"/><linearGradient id="linear-gradient-99" x1="1348.4052" y1="1297.08" x2="1348.4052" y2="1451.96" xlink:href="#linear-gradient-3"/><linearGradient id="linear-gradient-100" x1="1323.9782" y1="1443.0993" x2="1304.7991" y2="1476.3185" xlink:href="#linear-gradient-4"/><linearGradient id="linear-gradient-101" x1="1388.1635" y1="1447.1553" x2="1372.7363" y2="1473.876" xlink:href="#linear-gradient-4"/><linearGradient id="linear-gradient-102" x1="1349.0688" y1="1113.66" x2="1349.0688" y2="1108.3391" xlink:href="#linear-gradient-6"/><linearGradient id="linear-gradient-103" x1="2252.2701" y1="1021.4479" x2="2252.2701" y2="1298.0387" xlink:href="#linear-gradient"/><linearGradient id="linear-gradient-104" x1="2246.04" y1="1284.7176" x2="2246.04" y2="1242" xlink:href="#linear-gradient-2"/><linearGradient id="linear-gradient-105" x1="2248.4052" y1="1297.08" x2="2248.4052" y2="1451.96" xlink:href="#linear-gradient-3"/><linearGradient id="linear-gradient-106" x1="2223.9782" y1="1443.0993" x2="2204.7991" y2="1476.3185" xlink:href="#linear-gradient-4"/><linearGradient id="linear-gradient-107" x1="2288.1635" y1="1447.1553" x2="2272.7363" y2="1473.876" xlink:href="#linear-gradient-4"/><linearGradient id="linear-gradient-108" x1="2249.0688" y1="1113.66" x2="2249.0688" y2="1108.3391" xlink:href="#linear-gradient-6"/><linearGradient id="linear-gradient-109" x1="1952.2701" y1="1021.4479" x2="1952.2701" y2="1298.0387" xlink:href="#linear-gradient"/><linearGradient id="linear-gradient-110" x1="1946.04" y1="1284.7176" x2="1946.04" y2="1242" xlink:href="#linear-gradient-2"/><linearGradient id="linear-gradient-111" x1="1948.4052" y1="1297.08" x2="1948.4052" y2="1451.96" xlink:href="#linear-gradient-3"/><linearGradient id="linear-gradient-112" x1="1923.9782" y1="1443.0993" x2="1904.7991" y2="1476.3185" xlink:href="#linear-gradient-4"/><linearGradient id="linear-gradient-113" x1="1988.1635" y1="1447.1553" x2="1972.7363" y2="1473.876" xlink:href="#linear-gradient-4"/><linearGradient id="linear-gradient-114" x1="1949.0688" y1="1113.66" x2="1949.0688" y2="1108.3391" xlink:href="#linear-gradient-6"/><linearGradient id="linear-gradient-115" x1="2852.2701" y1="1021.4479" x2="2852.2701" y2="1298.0387" xlink:href="#linear-gradient"/><linearGradient id="linear-gradient-116" x1="2846.04" y1="1284.7176" x2="2846.04" y2="1242" xlink:href="#linear-gradient-2"/><linearGradient id="linear-gradient-117" x1="2848.4052" y1="1297.08" x2="2848.4052" y2="1451.96" xlink:href="#linear-gradient-3"/><linearGradient id="linear-gradient-118" x1="2823.9782" y1="1443.0993" x2="2804.7991" y2="1476.3185" xlink:href="#linear-gradient-4"/><linearGradient id="linear-gradient-119" x1="2888.1635" y1="1447.1553" x2="2872.7363" y2="1473.876" xlink:href="#linear-gradient-4"/><linearGradient id="linear-gradient-120" x1="2849.0688" y1="1113.66" x2="2849.0688" y2="1108.3391" xlink:href="#linear-gradient-6"/><linearGradient id="linear-gradient-121" x1="1652.2701" y1="1021.4458" x2="1652.2701" y2="1298.0387" xlink:href="#linear-gradient"/><linearGradient id="linear-gradient-122" x1="1646.04" y1="1284.7176" x2="1646.04" y2="1242" xlink:href="#linear-gradient-2"/><linearGradient id="linear-gradient-123" x1="1648.4052" y1="1297.08" x2="1648.4052" y2="1451.96" xlink:href="#linear-gradient-3"/><linearGradient id="linear-gradient-124" x1="1623.9782" y1="1443.0993" x2="1604.7991" y2="1476.3185" xlink:href="#linear-gradient-4"/><linearGradient id="linear-gradient-125" x1="1688.1635" y1="1447.1553" x2="1672.7363" y2="1473.876" xlink:href="#linear-gradient-4"/><linearGradient id="linear-gradient-126" x1="1649.0688" y1="1113.2778" x2="1649.0688" y2="1108.3391" xlink:href="#linear-gradient-6"/><linearGradient id="linear-gradient-127" x1="452.2701" y1="1021.4458" x2="452.2701" y2="1298.0387" xlink:href="#linear-gradient"/><linearGradient id="linear-gradient-128" x1="446.04" y1="1284.7176" x2="446.04" y2="1242" xlink:href="#linear-gradient-2"/><linearGradient id="linear-gradient-129" x1="448.4052" y1="1297.08" x2="448.4052" y2="1451.96" xlink:href="#linear-gradient-3"/><linearGradient id="linear-gradient-130" x1="423.9782" y1="1443.0993" x2="404.7991" y2="1476.3185" xlink:href="#linear-gradient-4"/><linearGradient id="linear-gradient-131" x1="488.1635" y1="1447.1553" x2="472.7363" y2="1473.876" xlink:href="#linear-gradient-4"/><linearGradient id="linear-gradient-132" x1="449.0688" y1="1113.2778" x2="449.0688" y2="1108.3391" xlink:href="#linear-gradient-6"/><linearGradient id="linear-gradient-133" x1="2552.2701" y1="1021.4459" x2="2552.2701" y2="1298.0387" xlink:href="#linear-gradient"/><linearGradient id="linear-gradient-134" x1="2546.04" y1="1284.7176" x2="2546.04" y2="1242" xlink:href="#linear-gradient-2"/><linearGradient id="linear-gradient-135" x1="2548.4052" y1="1297.08" x2="2548.4052" y2="1451.96" xlink:href="#linear-gradient-3"/><linearGradient id="linear-gradient-136" x1="2523.9782" y1="1443.0993" x2="2504.7991" y2="1476.3185" xlink:href="#linear-gradient-4"/><linearGradient id="linear-gradient-137" x1="2588.1635" y1="1447.1553" x2="2572.7363" y2="1473.876" xlink:href="#linear-gradient-4"/><linearGradient id="linear-gradient-138" x1="2549.075" y1="1112.6547" x2="2549.075" y2="1108.5099" xlink:href="#linear-gradient-6"/><linearGradient id="linear-gradient-139" x1="1052.2701" y1="1021.4459" x2="1052.2701" y2="1298.0387" xlink:href="#linear-gradient"/><linearGradient id="linear-gradient-140" x1="1046.04" y1="1284.7176" x2="1046.04" y2="1242" xlink:href="#linear-gradient-2"/><linearGradient id="linear-gradient-141" x1="1048.4052" y1="1297.08" x2="1048.4052" y2="1451.96" xlink:href="#linear-gradient-3"/><linearGradient id="linear-gradient-142" x1="1023.9782" y1="1443.0993" x2="1004.7991" y2="1476.3185" xlink:href="#linear-gradient-4"/><linearGradient id="linear-gradient-143" x1="1088.1635" y1="1447.1553" x2="1072.7363" y2="1473.876" xlink:href="#linear-gradient-4"/><linearGradient id="linear-gradient-144" x1="1049.075" y1="1112.6547" x2="1049.075" y2="1108.5099" xlink:href="#linear-gradient-6"/></defs><title>bamsedanskysked</title><g id="Layer_2" data-name="Layer 2"><g id="sprite"><path class="cls-1" d="M87.32,164.88s0-4.48-1.6-4.16c-.9923.1985-.96.96-1.6,3.52-2.2836,9.1343-9.4178,109.2282-10.24,105.6,0,0-6.4-7.04-15.36-7.04s-14.08,4.48-14.08,4.48c3.12-40.572,5.87-78.6131,7.68-111.36,0,0,3.84-25.6,28.8-24.32,0,0,4.48-.64,3.84-5.12-.55-3.8538-13.44-108.16,56.32-104.96s58.88,62.08,56.96,101.12c0,0,.64,1.92,3.84,3.2,9.1207,3.6483,26.981,3.8345,28.16,29.44,1.6614,36.0807-3.2,68.48,22.4,101.12,0,0-16,4.48-19.84,16.64,0,0-30.72-17.28-30.72-115.2.0333-.7833-.5657-1.92-1.28-1.92-1.28,0-.64,1.92-.64,4.48l4.48,130.56s.64,5.12-3.2,5.12S100.12,298,100.12,298s-9.6,1.28-10.24-10.88S87.32,164.88,87.32,164.88Z"/><path class="cls-2" d="M99.9743,278.0213c2.5289,2.0655,14.2951-19.29,14.547-36.0213,0,0,27.7088,5.5417,69.9645,0,0,0,.6928,26.3233,7.62,36.0213,0,0,0,4.849-4.849,4.849s-62.3446,4.1564-82.4334,0A7.053,7.053,0,0,1,99.9743,278.0213Z"/><path class="cls-3" d="M54.68,294.8s17.28,1.28,19.2-24.96c0,0-12.16-13.44-29.44-2.56C44.44,267.28,36.76,295.44,54.68,294.8Z"/><path class="cls-4" d="M201.24,296.08s5.12.64,5.12,5.76,4.48,117.12-.64,149.12c0,0-12.8-11.52-25.6-1.92,0,0,16.64-124.16-24.96-126.08s-33.92,121.6-33.92,121.6-17.28-10.24-28.16,5.12c0,0-2.56-104.96,1.28-148.48,0,0,.189-3.1226,2.9745-3.1613S201.24,296.08,201.24,296.08Z"/><path class="cls-5" d="M109.72,480.4s16.64-2.56,11.52-35.84c0,0-17.28-10.24-28.16,5.12C93.08,449.68,95.64,481.68,109.72,480.4Z"/><path class="cls-6" d="M190.36,475.92s14.72.64,15.36-24.96c0,0-12.8-11.52-25.6-1.92C180.12,449.04,175.64,475.28,190.36,475.92Z"/><path class="cls-3" d="M257.88,284.88s12.16-8.96-5.76-28.8c0,0-15.36,5.12-19.84,16.64C232.28,272.72,247,295.12,257.88,284.88Z"/><path class="cls-3" d="M102.68,77.2s-.96-41.28,44.48-40.64,45.8437,36.8008,45.76,41.28c-.0958,5.127,1.4452,39.0471-45.76,42.56C147.16,120.4,104.6,123.28,102.68,77.2Z"/><ellipse class="cls-7" cx="165.08" cy="74.96" rx="1.9712" ry="5.44"/><ellipse class="cls-7" cx="138.4921" cy="74.32" rx="2.2031" ry="6.08"/><path class="cls-3" d="M151.32,82.32s3.84-.64,4.48,4.48c.7188,5.7507-4.48,5.12-4.48,5.12"/><path class="cls-7" d="M123.16,62.48s12.8-16,8.96-24.32a51.4318,51.4318,0,0,0-17.28,9.6S123.16,49.04,123.16,62.48Z"/><path class="cls-7" d="M146.2,61.84s-1.28-11.52-14.72-23.04c3.84-.64,17.2833-3.9682,28.8-.64C160.28,38.16,157.08,56.72,146.2,61.84Z"/><path d="M179.16,46.16c.64,5.76-8.96,14.08-8.96,14.08s-1.92-16-12.16-22.4C164.3331,38.7629,174.1305,42.124,179.16,46.16Z"/><path class="cls-8" d="M112.92,479.12c-9.5513,0-17.28-14.5987-17.28-32.64l-2.56,3.2S96.28,487.44,112.92,479.12Z"/><path class="cls-8" d="M195.48,474.64c-9.5147,1.3933-15.5772-11.3222-12.8-27.52l-2.24,1.6C179.2851,448.3587,175.502,482.2965,195.48,474.64Z"/><path class="cls-9" d="M140.12,103.8441a8.8483,8.8483,0,0,0,8.16,6.24c6.72.48,9.12-6.24,9.12-6.24S143.48,104.8041,140.12,103.8441Z"/><rect class="cls-10" width="300" height="500"/><path class="cls-11" d="M1287.32,164.88s0-4.48-1.6-4.16c-.9923.1985-.96.96-1.6,3.52-2.2836,9.1343-9.4178,109.2282-10.24,105.6,0,0-6.4-7.04-15.36-7.04s-14.08,4.48-14.08,4.48c3.12-40.572,5.87-78.6131,7.68-111.36,0,0,3.84-25.6,28.8-24.32,0,0,4.48-.64,3.84-5.12-.5505-3.8538-13.44-108.16,56.32-104.96s58.88,62.08,56.96,101.12c0,0,.64,1.92,3.84,3.2,9.1207,3.6483,26.981,3.8345,28.16,29.44,1.6614,36.0807-3.2,68.48,22.4,101.12,0,0-16,4.48-19.84,16.64,0,0-30.72-17.28-30.72-115.2.0333-.7833-.5657-1.92-1.28-1.92-1.28,0-.64,1.92-.64,4.48l4.48,130.56s.64,5.12-3.2,5.12S1300.12,298,1300.12,298s-9.6,1.28-10.24-10.88S1287.32,164.88,1287.32,164.88Z"/><path class="cls-12" d="M1299.9743,278.0213c2.5289,2.0655,14.2951-19.29,14.547-36.0213,0,0,27.7088,5.5417,69.9645,0,0,0,.6928,26.3233,7.62,36.0213,0,0,0,4.849-4.849,4.849s-62.3446,4.1564-82.4334,0A7.053,7.053,0,0,1,1299.9743,278.0213Z"/><path class="cls-3" d="M1254.68,294.8s17.28,1.28,19.2-24.96c0,0-12.16-13.44-29.44-2.56C1244.44,267.28,1236.76,295.44,1254.68,294.8Z"/><path class="cls-13" d="M1401.24,296.08s5.12.64,5.12,5.76,4.48,117.12-.64,149.12c0,0-12.8-11.52-25.6-1.92,0,0,16.64-124.16-24.96-126.08s-33.92,121.6-33.92,121.6-17.28-10.24-28.16,5.12c0,0-2.56-104.96,1.28-148.48,0,0,.189-3.1226,2.9745-3.1613S1401.24,296.08,1401.24,296.08Z"/><path class="cls-14" d="M1309.72,480.4s16.64-2.56,11.52-35.84c0,0-17.28-10.24-28.16,5.12C1293.08,449.68,1295.64,481.68,1309.72,480.4Z"/><path class="cls-15" d="M1390.36,475.92s14.72.64,15.36-24.96c0,0-12.8-11.52-25.6-1.92C1380.12,449.04,1375.64,475.28,1390.36,475.92Z"/><path class="cls-3" d="M1457.88,284.88s12.16-8.96-5.76-28.8c0,0-15.36,5.12-19.84,16.64C1432.28,272.72,1447,295.12,1457.88,284.88Z"/><path class="cls-3" d="M1302.68,77.2s-.96-41.28,44.48-40.64,45.8437,36.8008,45.76,41.28c-.0958,5.127,1.4452,39.0471-45.76,42.56C1347.16,120.4,1304.6,123.28,1302.68,77.2Z"/><ellipse class="cls-7" cx="1365.08" cy="74.96" rx="1.9712" ry="5.44"/><ellipse class="cls-7" cx="1338.4921" cy="74.32" rx="2.2031" ry="6.08"/><path class="cls-3" d="M1351.32,82.32s3.84-.64,4.48,4.48c.7188,5.7507-4.48,5.12-4.48,5.12"/><path class="cls-7" d="M1323.16,62.48s12.8-16,8.96-24.32a51.4318,51.4318,0,0,0-17.28,9.6S1323.16,49.04,1323.16,62.48Z"/><path class="cls-7" d="M1346.2,61.84s-1.28-11.52-14.72-23.04c3.84-.64,17.2833-3.9682,28.8-.64C1360.28,38.16,1357.08,56.72,1346.2,61.84Z"/><path d="M1379.16,46.16c.64,5.76-8.96,14.08-8.96,14.08s-1.92-16-12.16-22.4C1364.3331,38.7629,1374.1305,42.124,1379.16,46.16Z"/><path class="cls-8" d="M1312.92,479.12c-9.5513,0-17.28-14.5987-17.28-32.64l-2.56,3.2S1296.28,487.44,1312.92,479.12Z"/><path class="cls-8" d="M1395.48,474.64c-9.5147,1.3933-15.5772-11.3222-12.8-27.52l-2.24,1.6C1379.2851,448.3587,1375.502,482.2965,1395.48,474.64Z"/><path class="cls-16" d="M1340.12,103.8441a8.8483,8.8483,0,0,0,8.16,6.24c6.72.48,9.12-6.24,9.12-6.24S1343.48,104.8041,1340.12,103.8441Z"/><rect class="cls-10" x="1200" width="300" height="500"/><path class="cls-17" d="M379.32,171.88s0-4.48-1.6-4.16c-.9923.1985-.96.96-1.6,3.52-.9876,3.95.37,25.9119-2.3786,48.1393-3.6066,29.17-18.3948,57.52-18.8614,55.4607,0,0-6.4-7.04-15.36-7.04s-14.08,4.48-14.08,4.48c1.6434-21.3685,18.06-39.78,17.6986-58.5955-.34-17.708.1247-35.2647.9814-50.7645,0,0,3.84-25.6,28.8-24.32,0,0,4.48-.64,3.84-5.12-.55-3.8538-13.44-108.16,56.32-104.96s58.88,62.08,56.96,101.12c0,0,.64,1.92,3.84,3.2,9.1207,3.6483,26.981,3.8345,28.16,29.44,1.6614,36.0807,8.8,57.48,34.4,90.12,0,0-16,4.48-19.84,16.64-15.1-19.54-32.1-25.54-42.72-104.2.0333-.7833-.5657-1.92-1.28-1.92-1.28,0-.64,1.92-.64,4.48l2.54,128.1s2.58,7.58-1.26,7.58S388.12,305,388.12,305s-9.6,1.28-10.24-10.88S379.32,171.88,379.32,171.88Z"/><path class="cls-18" d="M387.9743,285.0213c2.5289,2.0655,14.2951-19.29,14.547-36.0213,0,0,27.7088,5.5417,69.9645,0,0,0,.6928,26.3233,7.62,36.0213,0,0,0,4.849-4.849,4.849s-62.3446,4.1564-82.4334,0A7.053,7.053,0,0,1,387.9743,285.0213Z"/><path class="cls-3" d="M335.68,299.8s17.28,1.28,19.2-24.96c0,0-11.38-12.34-29.44-2.56C325.44,272.28,317.76,300.44,335.68,299.8Z"/><path class="cls-19" d="M489.24,303.08s5.12.64,5.12,5.76,4.48,110.12-.64,142.12c0,0-12.8-11.52-25.6-1.92,0,0,16.64-117.16-24.96-119.08s-21.92,114.6-21.92,114.6-17.28-10.24-28.16,5.12c0,0-14.56-97.96-10.72-141.48,0,0,.189-3.1226,2.9745-3.1613S489.24,303.08,489.24,303.08Z"/><path class="cls-20" d="M409.72,480.4s16.64-2.56,11.52-35.84c0,0-17.28-10.24-28.16,5.12C393.08,449.68,395.64,481.68,409.72,480.4Z"/><path class="cls-21" d="M478.36,475.92s14.72.64,15.36-24.96c0,0-12.8-11.52-25.6-1.92C468.12,449.04,463.64,475.28,478.36,475.92Z"/><path class="cls-3" d="M561.88,280.88s12.16-8.96-5.76-28.8c0,0-15.36,5.12-19.84,16.64C536.28,268.72,551,291.12,561.88,280.88Z"/><path class="cls-3" d="M394.68,84.2s-.96-41.28,44.48-40.64,45.8437,36.8008,45.76,41.28c-.0958,5.127,1.4452,39.0471-45.76,42.56C439.16,127.4,396.6,130.28,394.68,84.2Z"/><ellipse class="cls-7" cx="457.08" cy="81.96" rx="1.9712" ry="5.44"/><ellipse class="cls-7" cx="430.4921" cy="81.32" rx="2.2031" ry="6.08"/><path class="cls-3" d="M443.32,89.32s3.84-.64,4.48,4.48c.7188,5.7507-4.48,5.12-4.48,5.12"/><path class="cls-7" d="M415.16,69.48s12.8-16,8.96-24.32a51.4318,51.4318,0,0,0-17.28,9.6S415.16,56.04,415.16,69.48Z"/><path class="cls-7" d="M438.2,68.84s-1.28-11.52-14.72-23.04c3.84-.64,17.2833-3.9682,28.8-.64C452.28,45.16,449.08,63.72,438.2,68.84Z"/><path d="M471.16,53.16c.64,5.76-8.96,14.08-8.96,14.08s-1.92-16-12.16-22.4C456.3331,45.7629,466.1305,49.124,471.16,53.16Z"/><path class="cls-8" d="M412.92,479.12c-9.5513,0-17.28-14.5987-17.28-32.64l-2.56,3.2S396.28,487.44,412.92,479.12Z"/><path class="cls-8" d="M483.48,474.64c-9.5147,1.3933-15.5772-11.3222-12.8-27.52l-2.24,1.6C467.2851,448.3587,463.502,482.2965,483.48,474.64Z"/><path class="cls-22" d="M432.12,110.8441a8.8483,8.8483,0,0,0,8.16,6.24c6.72.48,9.12-6.24,9.12-6.24S435.48,111.8041,432.12,110.8441Z"/><rect class="cls-10" x="300" width="300" height="500"/><path class="cls-23" d="M979.32,171.88s0-4.48-1.6-4.16c-.9923.1985-.96.96-1.6,3.52-.9876,3.95.37,25.9119-2.3786,48.1393-3.6066,29.17-18.3948,57.52-18.8614,55.4607,0,0-6.4-7.04-15.36-7.04s-14.08,4.48-14.08,4.48c1.6434-21.3685,18.06-39.78,17.6986-58.5955-.34-17.708.1247-35.2647.9814-50.7645,0,0,3.84-25.6,28.8-24.32,0,0,4.48-.64,3.84-5.12-.55-3.8538-13.44-108.16,56.32-104.96s58.88,62.08,56.96,101.12c0,0,.64,1.92,3.84,3.2,9.1207,3.6483,26.981,3.8345,28.16,29.44,1.6614,36.0807,8.8,57.48,34.4,90.12,0,0-16,4.48-19.84,16.64-15.1-19.54-32.1-25.54-42.72-104.2.0333-.7833-.5657-1.92-1.28-1.92-1.28,0-.64,1.92-.64,4.48l2.54,128.1s2.58,7.58-1.26,7.58S988.12,305,988.12,305s-9.6,1.28-10.24-10.88S979.32,171.88,979.32,171.88Z"/><path class="cls-24" d="M987.9743,285.0213c2.5289,2.0655,14.2951-19.29,14.547-36.0213,0,0,27.7088,5.5417,69.9645,0,0,0,.6928,26.3233,7.62,36.0213,0,0,0,4.849-4.849,4.849s-62.3446,4.1564-82.4334,0A7.053,7.053,0,0,1,987.9743,285.0213Z"/><path class="cls-3" d="M935.68,299.8s17.28,1.28,19.2-24.96c0,0-11.38-12.34-29.44-2.56C925.44,272.28,917.76,300.44,935.68,299.8Z"/><path class="cls-25" d="M1089.24,303.08s5.12.64,5.12,5.76,4.48,110.12-.64,142.12c0,0-12.8-11.52-25.6-1.92,0,0,16.64-117.16-24.96-119.08s-21.92,114.6-21.92,114.6-17.28-10.24-28.16,5.12c0,0-14.56-97.96-10.72-141.48,0,0,.189-3.1226,2.9745-3.1613S1089.24,303.08,1089.24,303.08Z"/><path class="cls-26" d="M1009.72,480.4s16.64-2.56,11.52-35.84c0,0-17.28-10.24-28.16,5.12C993.08,449.68,995.64,481.68,1009.72,480.4Z"/><path class="cls-27" d="M1078.36,475.92s14.72.64,15.36-24.96c0,0-12.8-11.52-25.6-1.92C1068.12,449.04,1063.64,475.28,1078.36,475.92Z"/><path class="cls-3" d="M1161.88,280.88s12.16-8.96-5.76-28.8c0,0-15.36,5.12-19.84,16.64C1136.28,268.72,1151,291.12,1161.88,280.88Z"/><path class="cls-3" d="M994.68,84.2s-.96-41.28,44.48-40.64,45.8437,36.8008,45.76,41.28c-.0958,5.127,1.4452,39.0471-45.76,42.56C1039.16,127.4,996.6,130.28,994.68,84.2Z"/><ellipse class="cls-7" cx="1057.08" cy="81.96" rx="1.9712" ry="5.44"/><ellipse class="cls-7" cx="1030.4921" cy="81.32" rx="2.2031" ry="6.08"/><path class="cls-3" d="M1043.32,89.32s3.84-.64,4.48,4.48c.7188,5.7507-4.48,5.12-4.48,5.12"/><path class="cls-7" d="M1015.16,69.48s12.8-16,8.96-24.32a51.4318,51.4318,0,0,0-17.28,9.6S1015.16,56.04,1015.16,69.48Z"/><path class="cls-7" d="M1038.2,68.84s-1.28-11.52-14.72-23.04c3.84-.64,17.2833-3.9682,28.8-.64C1052.28,45.16,1049.08,63.72,1038.2,68.84Z"/><path d="M1071.16,53.16c.64,5.76-8.96,14.08-8.96,14.08s-1.92-16-12.16-22.4C1056.3331,45.7629,1066.1305,49.124,1071.16,53.16Z"/><path class="cls-8" d="M1012.92,479.12c-9.5513,0-17.28-14.5987-17.28-32.64l-2.56,3.2S996.28,487.44,1012.92,479.12Z"/><path class="cls-8" d="M1083.48,474.64c-9.5147,1.3933-15.5772-11.3222-12.8-27.52l-2.24,1.6C1067.2851,448.3587,1063.502,482.2965,1083.48,474.64Z"/><path class="cls-28" d="M1032.12,110.8441a8.8483,8.8483,0,0,0,8.16,6.24c6.72.48,9.12-6.24,9.12-6.24S1035.48,111.8041,1032.12,110.8441Z"/><rect class="cls-10" x="900" width="300" height="500"/><path class="cls-29" d="M671.32,175.88s0-4.48-1.6-4.16c-.9923.1985-.96.96-1.6,3.52-.9876,3.95-23.63,23.9119-26.3786,46.1393A157.6333,157.6333,0,0,0,644.88,274.84s-4.4-3.04-13.36-3.04-14.08,4.48-14.08,4.48c1.6434-21.3685-5.94-41.78-6.3014-60.5955-.34-17.708,24.1247-33.2647,24.9814-48.7645,0,0,3.84-25.6,28.8-24.32,0,0,4.48-.64,3.84-5.12-.55-3.8538-13.44-108.16,56.32-104.96s58.88,62.08,56.96,101.12c0,0,.64,1.92,3.84,3.2,9.1207,3.6483,24.2924,4.1009,28.16,29.44,4.46,29.22,26.8,41.48,52.4,74.12,0,0-16,4.48-19.84,16.64-15.1-19.54-52.1-42.54-60.72-88.2.0333-.7833-.5657-1.92-1.28-1.92-1.28,0-.64,1.92-.64,4.48l2.54,128.1s2.58,7.58-1.26,7.58S680.12,309,680.12,309s-9.6,1.28-10.24-10.88S671.32,175.88,671.32,175.88Z"/><path class="cls-30" d="M679.9743,289.0213c2.5289,2.0655,14.2951-19.29,14.547-36.0213,0,0,27.7088,5.5417,69.9645,0,0,0,.6928,26.3233,7.62,36.0213,0,0,0,4.849-4.849,4.849s-62.3446,4.1564-82.4334,0A7.053,7.053,0,0,1,679.9743,289.0213Z"/><path class="cls-3" d="M633.5,301.5s12-1,11.38-26.66c0,0-9.38-8.34-27.44,1.44C617.44,276.28,615.58,302.14,633.5,301.5Z"/><path class="cls-31" d="M781.24,307.08s5.12.64,5.12,5.76,4.48,107.12-.64,139.12c0,0-12.8-11.52-25.6-1.92,0,0,16.64-114.16-24.96-116.08s-13.92,110.6-13.92,110.6-17.28-10.24-28.16,5.12c0,0-22.56-93.96-18.72-137.48,0,0,.189-3.1226,2.9745-3.1613S781.24,307.08,781.24,307.08Z"/><path class="cls-32" d="M709.72,480.4s16.64-2.56,11.52-35.84c0,0-17.28-10.24-28.16,5.12C693.08,449.68,695.64,481.68,709.72,480.4Z"/><path class="cls-33" d="M770.36,476.92s14.72.64,15.36-24.96c0,0-12.8-11.52-25.6-1.92C760.12,450.04,755.64,476.28,770.36,476.92Z"/><path class="cls-3" d="M871.88,268.88s12.16-8.96-5.76-28.8c0,0-15.36,5.12-19.84,16.64C846.28,256.72,861,279.12,871.88,268.88Z"/><path class="cls-3" d="M686.68,88.2s-.96-41.28,44.48-40.64,45.8437,36.8008,45.76,41.28c-.0958,5.127,1.4452,39.0471-45.76,42.56C731.16,131.4,688.6,134.28,686.68,88.2Z"/><ellipse class="cls-7" cx="749.08" cy="85.96" rx="1.9712" ry="5.44"/><ellipse class="cls-7" cx="722.4921" cy="85.32" rx="2.2031" ry="6.08"/><path class="cls-3" d="M735.32,93.32s3.84-.64,4.48,4.48c.7188,5.7507-4.48,5.12-4.48,5.12"/><path class="cls-7" d="M707.16,73.48s12.8-16,8.96-24.32a51.4318,51.4318,0,0,0-17.28,9.6S707.16,60.04,707.16,73.48Z"/><path class="cls-7" d="M730.2,72.84s-1.28-11.52-14.72-23.04c3.84-.64,17.2833-3.9682,28.8-.64C744.28,49.16,741.08,67.72,730.2,72.84Z"/><path d="M763.16,57.16c.64,5.76-8.96,14.08-8.96,14.08s-1.92-16-12.16-22.4C748.3331,49.7629,758.1305,53.124,763.16,57.16Z"/><path class="cls-8" d="M712.92,479.12c-9.5513,0-17.28-14.5987-17.28-32.64l-2.56,3.2S696.28,487.44,712.92,479.12Z"/><path class="cls-8" d="M775.48,475.64c-9.5147,1.3933-15.5772-11.3222-12.8-27.52l-2.24,1.6C759.2851,449.3587,755.502,483.2965,775.48,475.64Z"/><path class="cls-34" d="M724.12,114.8441a8.8483,8.8483,0,0,0,8.16,6.24c6.72.48,9.12-6.24,9.12-6.24S727.48,115.8041,724.12,114.8441Z"/><rect class="cls-10" x="600" width="300" height="500"/><path class="cls-35" d="M1600.32,171.88s0-4.48-1.6-4.16c-.9923.1985-.96.96-1.6,3.52-1.0373,4.1494,5.1782,36.0688-1.995,59.5088-8.6177,28.16-37.1763,52.7312-37.625,50.7512-1.3345.8782-2.9186-9.7924-8.98-11.7-8.5467-2.69-13.02.7-13.02.7,1.6176-21.032,21.2562-28.6039,28.5486-47.8907,6.7751-17.9186.2-43.918,1.0714-59.6893,0,0,3.84-25.6,28.8-24.32,0,0,4.48-.64,3.84-5.12-.5505-3.8538-21.44-109.16,48.32-105.96s66.88,63.08,64.96,102.12c0,0,.64,1.92,3.84,3.2,9.1207,3.6483,19.4013.0648,26.62,24.66,5.1379,17.5057,13.5568,32.9292,19.2341,50.9077C1765.5,223.5,1772.5,235.5,1781.5,258.5c0,0-20-3-21.9,8.54,0,0-5.1-10.54-23.1-52.54-7.4011-17.2692-16-28-21.62-49.66.0333-.7833-.5657-1.92-1.28-1.92-1.28,0-.64,1.92-.64,4.48l4.48,130.56s.64,5.12-3.2,5.12S1613.12,305,1613.12,305s-9.6,1.28-10.24-10.88S1600.32,171.88,1600.32,171.88Z"/><path class="cls-36" d="M1612.9743,285.0213c2.5289,2.0655,14.2951-19.29,14.547-36.0213,0,0,27.7088,5.5417,69.9645,0,0,0,.6928,26.3233,7.62,36.0213,0,0,0,4.849-4.849,4.849s-62.3446,4.1564-82.4334,0A7.053,7.053,0,0,1,1612.9743,285.0213Z"/><path class="cls-3" d="M1532.5,294.5s16,9,27-15c-4-7-5.0372-16.6644-23-13C1536.5,266.5,1519.5,285.5,1532.5,294.5Z"/><path class="cls-37" d="M1714.24,303.08s5.12.64,5.12,5.76-.52,107.12-5.64,139.12c0,0-12.8-11.52-25.6-1.92,0,0,21.64-114.16-19.96-116.08S1604.5,447.5,1604.5,447.5a53.7976,53.7976,0,0,1-28.42-2.82s27.44-92.96,31.28-136.48c0,0,.189-3.1226,2.9745-3.1613S1714.24,303.08,1714.24,303.08Z"/><path class="cls-38" d="M1583.1689,479.1991s16.6925,2.1911,21.0748-31.1941c0,0-13.7308-14.66-28.4691-2.9517C1575.7746,445.0533,1569.292,476.4942,1583.1689,479.1991Z"/><path class="cls-39" d="M1698.36,472.92s14.72.64,15.36-24.96c0,0-12.8-11.52-25.6-1.92C1688.12,446.04,1683.64,472.28,1698.36,472.92Z"/><path class="cls-3" d="M1772.5,283.5c3-1,15,0,9-25,0,0-18.52-6.52-23,5C1758.5,263.5,1758.5,285.5,1772.5,283.5Z"/><path class="cls-3" d="M1607.68,83.2s-.96-41.28,44.48-40.64,45.8437,36.8008,45.76,41.28c-.0958,5.127,1.4452,39.0471-45.76,42.56C1652.16,126.4,1609.6,129.28,1607.68,83.2Z"/><ellipse class="cls-7" cx="1670.08" cy="80.96" rx="1.9712" ry="5.44"/><ellipse class="cls-7" cx="1643.4921" cy="80.32" rx="2.2031" ry="6.08"/><path class="cls-3" d="M1656.32,88.32s3.84-.64,4.48,4.48c.7188,5.7507-4.48,5.12-4.48,5.12"/><path class="cls-7" d="M1628.16,68.48s12.8-16,8.96-24.32a51.4318,51.4318,0,0,0-17.28,9.6S1628.16,55.04,1628.16,68.48Z"/><path class="cls-7" d="M1651.2,67.84s-1.28-11.52-14.72-23.04c3.84-.64,17.2833-3.9682,28.8-.64C1665.28,44.16,1662.08,62.72,1651.2,67.84Z"/><path d="M1684.16,52.16c.64,5.76-8.96,14.08-8.96,14.08s-1.92-16-12.16-22.4C1669.3331,44.7629,1679.1305,48.124,1684.16,52.16Z"/><path class="cls-8" d="M1586.5991,478.8641c-9.1709-2.6686-12.513-18.8453-7.4724-36.1681l-3.3521,2.3573S1568.2971,482.2036,1586.5991,478.8641Z"/><path class="cls-8" d="M1703.48,471.64c-9.5147,1.3933-15.5772-11.3222-12.8-27.52l-2.24,1.6C1687.2851,445.3587,1683.502,479.2965,1703.48,471.64Z"/><path class="cls-40" d="M1645.12,109.8441a8.8483,8.8483,0,0,0,8.16,6.24c6.72.48,9.12-6.24,9.12-6.24S1648.48,110.8041,1645.12,109.8441Z"/><rect class="cls-10" x="1500" width="300" height="500"/><path class="cls-41" d="M2800.32,171.88s0-4.48-1.6-4.16c-.9923.1985-.96.96-1.6,3.52-1.0373,4.1494,5.1782,36.0688-1.995,59.5088-8.6177,28.16-37.1763,52.7312-37.625,50.7512-1.3345.8782-2.9186-9.7924-8.98-11.7-8.5467-2.69-13.02.7-13.02.7,1.6176-21.032,21.2562-28.6039,28.5486-47.8907,6.7751-17.9186.2-43.918,1.0714-59.6893,0,0,3.84-25.6,28.8-24.32,0,0,4.48-.64,3.84-5.12-.5505-3.8538-21.44-109.16,48.32-105.96s66.88,63.08,64.96,102.12c0,0,.64,1.92,3.84,3.2,9.1207,3.6483,19.4013.0648,26.62,24.66,5.1379,17.5057,13.5568,32.9292,19.2341,50.9077C2965.5,223.5,2972.5,235.5,2981.5,258.5c0,0-20-3-21.9,8.54,0,0-5.1-10.54-23.1-52.54-7.4011-17.2692-16-28-21.62-49.66.0333-.7833-.5657-1.92-1.28-1.92-1.28,0-.64,1.92-.64,4.48l4.48,130.56s.64,5.12-3.2,5.12S2813.12,305,2813.12,305s-9.6,1.28-10.24-10.88S2800.32,171.88,2800.32,171.88Z"/><path class="cls-42" d="M2812.9743,285.0213c2.5289,2.0655,14.2951-19.29,14.547-36.0213,0,0,27.7088,5.5417,69.9645,0,0,0,.6928,26.3233,7.62,36.0213,0,0,0,4.849-4.849,4.849s-62.3446,4.1564-82.4334,0A7.053,7.053,0,0,1,2812.9743,285.0213Z"/><path class="cls-3" d="M2732.5,294.5s16,9,27-15c-4-7-5.0372-16.6644-23-13C2736.5,266.5,2719.5,285.5,2732.5,294.5Z"/><path class="cls-43" d="M2914.24,303.08s5.12.64,5.12,5.76-.52,107.12-5.64,139.12c0,0-12.8-11.52-25.6-1.92,0,0,21.64-114.16-19.96-116.08S2804.5,447.5,2804.5,447.5a53.7976,53.7976,0,0,1-28.42-2.82s27.44-92.96,31.28-136.48c0,0,.189-3.1226,2.9745-3.1613S2914.24,303.08,2914.24,303.08Z"/><path class="cls-44" d="M2783.1689,479.1991s16.6925,2.1911,21.0748-31.1941c0,0-13.7308-14.66-28.4691-2.9517C2775.7746,445.0533,2769.292,476.4942,2783.1689,479.1991Z"/><path class="cls-45" d="M2898.36,472.92s14.72.64,15.36-24.96c0,0-12.8-11.52-25.6-1.92C2888.12,446.04,2883.64,472.28,2898.36,472.92Z"/><path class="cls-3" d="M2972.5,283.5c3-1,15,0,9-25,0,0-18.52-6.52-23,5C2958.5,263.5,2958.5,285.5,2972.5,283.5Z"/><path class="cls-3" d="M2807.68,83.2s-.96-41.28,44.48-40.64,45.8437,36.8008,45.76,41.28c-.0958,5.127,1.4452,39.0471-45.76,42.56C2852.16,126.4,2809.6,129.28,2807.68,83.2Z"/><ellipse class="cls-7" cx="2870.08" cy="80.96" rx="1.9712" ry="5.44"/><ellipse class="cls-7" cx="2843.4921" cy="80.32" rx="2.2031" ry="6.08"/><path class="cls-3" d="M2856.32,88.32s3.84-.64,4.48,4.48c.7188,5.7507-4.48,5.12-4.48,5.12"/><path class="cls-7" d="M2828.16,68.48s12.8-16,8.96-24.32a51.4318,51.4318,0,0,0-17.28,9.6S2828.16,55.04,2828.16,68.48Z"/><path class="cls-7" d="M2851.2,67.84s-1.28-11.52-14.72-23.04c3.84-.64,17.2833-3.9682,28.8-.64C2865.28,44.16,2862.08,62.72,2851.2,67.84Z"/><path d="M2884.16,52.16c.64,5.76-8.96,14.08-8.96,14.08s-1.92-16-12.16-22.4C2869.3331,44.7629,2879.1305,48.124,2884.16,52.16Z"/><path class="cls-8" d="M2786.5991,478.8641c-9.1709-2.6686-12.513-18.8453-7.4724-36.1681l-3.3521,2.3573S2768.2971,482.2036,2786.5991,478.8641Z"/><path class="cls-8" d="M2903.48,471.64c-9.5147,1.3933-15.5772-11.3222-12.8-27.52l-2.24,1.6C2887.2851,445.3587,2883.502,479.2965,2903.48,471.64Z"/><path class="cls-46" d="M2845.12,109.8441a8.8483,8.8483,0,0,0,8.16,6.24c6.72.48,9.12-6.24,9.12-6.24S2848.48,110.8041,2845.12,109.8441Z"/><rect class="cls-10" x="2700" width="300" height="500"/><path class="cls-47" d="M1900.32,177.88s0-4.48-1.6-4.16c-.9923.1985-.96.96-1.6,3.52-1.0373,4.1494,5.1782,36.0688-1.995,59.5088-8.6177,28.16-49.625,39.7512-53.625,39.7512-3,1,.0814-13.7924-5.98-15.7-8.5467-2.69-13.02.7-13.02.7,1.6176-21.032,34.2562-13.6039,41.5486-32.8907,6.7751-17.9186.2-43.918,1.0714-59.6893,0,0,3.84-25.6,28.8-24.32,0,0,4.48-.64,3.84-5.12-.5505-3.8538-27.44-109.16,42.32-105.96s66.88,63.08,64.96,102.12c0,0,6.64,1.92,9.84,3.2,9.1207,3.6483,16.9027.4047,29.62,22.66,8,14,35.4491,17.3568,38.2341,36.9077C2084.9531,213.9848,2071.5,244.5,2069.5,268.5c0,0-12,6-24.9,4.54,0,0,2.9-21.54,13.9-68.54,3.4183-14.6053-31-17-43.62-33.66.0333-.7833-.5657-1.92-1.28-1.92-1.28,0-.64,1.92-.64,4.48l14.48,130.56s.64,5.12-3.2,5.12S1923.12,311,1923.12,311s-9.6,1.28-10.24-10.88S1900.32,177.88,1900.32,177.88Z"/><path class="cls-48" d="M1922.9743,291.0213c2.5289,2.0655,14.2951-19.29,14.547-36.0213,0,0,27.7088,5.5417,69.9645,0,0,0,.6928,26.3233,7.62,36.0213,0,0,0,4.849-4.849,4.849s-62.3446,4.1564-82.4334,0A7.053,7.053,0,0,1,1922.9743,291.0213Z"/><path class="cls-3" d="M1810.5426,280.9332s11.9863,13.9042,30.4916-4.9254c-1.3814-7.9431.9294-17.3843-17.2091-20.0461C1823.8251,255.9617,1801.3775,268.0491,1810.5426,280.9332Z"/><path class="cls-49" d="M2024.24,309.08s5.12.64,5.12,5.76,5.14,103.66-7.64,134.12c0,0-12.8-11.52-25.6-1.92,0,0,23.64-109.16-17.96-111.08S1884.5,450.5,1884.5,450.5s-12-6-26.42-11.82c0,0,45.42-81.18,59.28-124.48,0,0,.189-3.1226,2.9745-3.1613S2024.24,309.08,2024.24,309.08Z"/><path class="cls-50" d="M1852.9624,471.3552s14.5539,8.4634,31.4805-20.6444c0,0-7.01-18.8234-25.1245-13.71C1859.3184,437.0011,1841.2044,463.5045,1852.9624,471.3552Z"/><path class="cls-51" d="M2006.36,473.92s14.72.64,15.36-24.96c0,0-12.8-11.52-25.6-1.92C1996.12,447.04,1991.64,473.28,2006.36,473.92Z"/><path class="cls-3" d="M2053.2359,289.3522c3.1623-.0108,14.2463,4.695,16.3729-20.9268,0,0-15.5486-11.9892-23.4093-2.45C2046.2,265.975,2039.3134,286.87,2053.2359,289.3522Z"/><path class="cls-3" d="M1901.68,89.2s-.96-41.28,44.48-40.64,45.8437,36.8008,45.76,41.28c-.0958,5.127,1.4452,39.0471-45.76,42.56C1946.16,132.4,1903.6,135.28,1901.68,89.2Z"/><circle class="cls-7" cx="1964.5" cy="86.5" r="3"/><circle class="cls-7" cx="1937.5" cy="86.5" r="3"/><path class="cls-3" d="M1950.32,94.32s3.84-.64,4.48,4.48c.7188,5.7507-4.48,5.12-4.48,5.12"/><path class="cls-7" d="M1922.16,74.48s12.8-16,8.96-24.32a51.4318,51.4318,0,0,0-17.28,9.6S1922.16,61.04,1922.16,74.48Z"/><path class="cls-7" d="M1945.2,73.84s-1.28-11.52-14.72-23.04c3.84-.64,17.2833-3.9682,28.8-.64C1959.28,50.16,1956.08,68.72,1945.2,73.84Z"/><path d="M1978.16,58.16c.64,5.76-8.96,14.08-8.96,14.08s-1.92-16-12.16-22.4C1963.3331,50.7629,1973.1305,54.124,1978.16,58.16Z"/><path class="cls-8" d="M1856.2561,472.37c-7.4306-6.0011-4.2709-22.2144,7.0645-36.25l-4.0022.8811S1838.0832,468.3878,1856.2561,472.37Z"/><path class="cls-8" d="M2011.48,472.64c-9.5147,1.3933-15.5772-11.3222-12.8-27.52l-2.24,1.6C1995.2851,446.3587,1991.502,480.2965,2011.48,472.64Z"/><path class="cls-52" d="M1939.12,115.8441a8.8483,8.8483,0,0,0,8.16,6.24c6.72.48,9.12-6.24,9.12-6.24S1942.48,116.8041,1939.12,115.8441Z"/><rect class="cls-10" x="1800" width="300" height="500"/><path class="cls-53" d="M2500.32,177.88s0-4.48-1.6-4.16c-.9923.1985-.96.96-1.6,3.52-1.0373,4.1494,5.1782,36.0688-1.995,59.5088-8.6177,28.16-49.625,39.7512-53.625,39.7512-3,1,.0814-13.7924-5.98-15.7-8.5467-2.69-13.02.7-13.02.7,1.6176-21.032,34.2562-13.6039,41.5486-32.8907,6.7751-17.9186.2-43.918,1.0714-59.6893,0,0,3.84-25.6,28.8-24.32,0,0,4.48-.64,3.84-5.12-.5505-3.8538-27.44-109.16,42.32-105.96s66.88,63.08,64.96,102.12c0,0,6.64,1.92,9.84,3.2,9.1207,3.6483,16.9027.4047,29.62,22.66,8,14,35.4491,17.3568,38.2341,36.9077C2684.9531,213.9848,2671.5,244.5,2669.5,268.5c0,0-12,6-24.9,4.54,0,0,2.9-21.54,13.9-68.54,3.4183-14.6053-31-17-43.62-33.66.0333-.7833-.5657-1.92-1.28-1.92-1.28,0-.64,1.92-.64,4.48l14.48,130.56s.64,5.12-3.2,5.12S2523.12,311,2523.12,311s-9.6,1.28-10.24-10.88S2500.32,177.88,2500.32,177.88Z"/><path class="cls-54" d="M2522.9743,291.0213c2.5289,2.0655,14.2951-19.29,14.547-36.0213,0,0,27.7088,5.5417,69.9645,0,0,0,.6928,26.3233,7.62,36.0213,0,0,0,4.849-4.849,4.849s-62.3446,4.1564-82.4334,0A7.053,7.053,0,0,1,2522.9743,291.0213Z"/><path class="cls-3" d="M2410.5426,280.9332s11.9863,13.9042,30.4916-4.9254c-1.3814-7.9431.9294-17.3843-17.2091-20.0461C2423.8251,255.9617,2401.3775,268.0491,2410.5426,280.9332Z"/><path class="cls-55" d="M2624.24,309.08s5.12.64,5.12,5.76,5.14,103.66-7.64,134.12c0,0-12.8-11.52-25.6-1.92,0,0,23.64-109.16-17.96-111.08S2484.5,450.5,2484.5,450.5s-12-6-26.42-11.82c0,0,45.42-81.18,59.28-124.48,0,0,.189-3.1226,2.9745-3.1613S2624.24,309.08,2624.24,309.08Z"/><path class="cls-56" d="M2452.9624,471.3552s14.5539,8.4634,31.4805-20.6444c0,0-7.01-18.8234-25.1245-13.71C2459.3184,437.0011,2441.2044,463.5045,2452.9624,471.3552Z"/><path class="cls-57" d="M2606.36,473.92s14.72.64,15.36-24.96c0,0-12.8-11.52-25.6-1.92C2596.12,447.04,2591.64,473.28,2606.36,473.92Z"/><path class="cls-3" d="M2653.2359,289.3522c3.1623-.0108,14.2463,4.695,16.3729-20.9268,0,0-15.5486-11.9892-23.4093-2.45C2646.2,265.975,2639.3134,286.87,2653.2359,289.3522Z"/><path class="cls-3" d="M2501.68,89.2s-.96-41.28,44.48-40.64,45.8437,36.8008,45.76,41.28c-.0958,5.127,1.4452,39.0471-45.76,42.56C2546.16,132.4,2503.6,135.28,2501.68,89.2Z"/><circle class="cls-7" cx="2564.5" cy="86.5" r="3"/><circle class="cls-7" cx="2537.5" cy="86.5" r="3"/><path class="cls-3" d="M2550.32,94.32s3.84-.64,4.48,4.48c.7188,5.7507-4.48,5.12-4.48,5.12"/><path class="cls-7" d="M2522.16,74.48s12.8-16,8.96-24.32a51.4318,51.4318,0,0,0-17.28,9.6S2522.16,61.04,2522.16,74.48Z"/><path class="cls-7" d="M2545.2,73.84s-1.28-11.52-14.72-23.04c3.84-.64,17.2833-3.9682,28.8-.64C2559.28,50.16,2556.08,68.72,2545.2,73.84Z"/><path d="M2578.16,58.16c.64,5.76-8.96,14.08-8.96,14.08s-1.92-16-12.16-22.4C2563.3331,50.7629,2573.1305,54.124,2578.16,58.16Z"/><path class="cls-8" d="M2456.2561,472.37c-7.4306-6.0011-4.2709-22.2144,7.0645-36.25l-4.0022.8811S2438.0832,468.3878,2456.2561,472.37Z"/><path class="cls-8" d="M2611.48,472.64c-9.5147,1.3933-15.5772-11.3222-12.8-27.52l-2.24,1.6C2595.2851,446.3587,2591.502,480.2965,2611.48,472.64Z"/><path class="cls-58" d="M2539.12,115.8441a8.8483,8.8483,0,0,0,8.16,6.24c6.72.48,9.12-6.24,9.12-6.24S2542.48,116.8041,2539.12,115.8441Z"/><rect class="cls-10" x="2400" width="300" height="500"/><path class="cls-59" d="M2200.32,183.88s0-4.48-1.6-4.16c-.9923.1985-.96.96-1.6,3.52-1.0373,4.1494,6.1782,28.0688-.995,51.5088-8.6177,28.16-55.625,31.7512-59.625,31.7512-3,1,.0814-13.7924-5.98-15.7-8.5467-2.69-13.02.7-13.02.7,1.6176-21.032,40.2562-5.6039,47.5486-24.8907,6.7751-17.9186-.8-35.918.0714-51.6893,0,0,3.84-25.6,28.8-24.32,0,0,7.75-2.8412,3.84-5.12-10.26-5.98-38.44-111.16,31.32-107.96s51.42,76.98,75.96,104.12c0,0,6.64,1.92,9.84,3.2,9.1207,3.6483,8.95,4.5018,29.62,19.66,15,11,37.4491,7.3568,40.2341,26.9077C2386.9531,206.9848,2356.5,237.5,2354.5,261.5a110.5154,110.5154,0,0,1-24,0s3-13,29-58c7.5042-12.988-32-10-44.62-26.66.0333-.7833-.5657-1.92-1.28-1.92-1.28,0-.64,1.92-.64,4.48l21.48,128.56s.64,5.12-3.2,5.12S2230.12,315,2230.12,315s-9.6,1.28-10.24-10.88S2200.32,183.88,2200.32,183.88Z"/><path class="cls-60" d="M2229.9743,295.0213c2.5289,2.0655,7.2951-17.29,7.547-34.0213,0,0,27.7088,5.5417,69.9645,0,0,0,7.6928,24.3233,14.62,34.0213,0,0,0,4.849-4.849,4.849s-62.3446,4.1564-82.4334,0A7.053,7.053,0,0,1,2229.9743,295.0213Z"/><path class="cls-3" d="M2105.5426,270.9332s11.9863,13.9042,30.4916-4.9254c-1.3814-7.9431.9294-17.3843-17.2091-20.0461C2118.8251,245.9617,2096.3775,258.0491,2105.5426,270.9332Z"/><path class="cls-61" d="M2331.24,313.08s5.12.64,5.12,5.76,11.14,101.66-4.64,132.12c0,0-12.8-11.52-25.6-1.92,0,0,20.4392-113.5916-20.96-109.08C2243.5,344.5,2177.5,441.5,2177.5,441.5s-12-6-26.42-11.82c0,0,60.42-69.18,73.28-111.48,0,0,.189-3.1226,2.9745-3.1613S2331.24,313.08,2331.24,313.08Z"/><path class="cls-62" d="M2145.9624,462.3552s14.5539,8.4634,31.4805-20.6444c0,0-7.01-18.8234-25.1245-13.71C2152.3184,428.0011,2134.2044,454.5045,2145.9624,462.3552Z"/><path class="cls-63" d="M2316.36,475.92s14.72.64,15.36-24.96c0,0-12.8-11.52-25.6-1.92C2306.12,449.04,2301.64,475.28,2316.36,475.92Z"/><path class="cls-3" d="M2338.2359,282.3522c3.1623-.0108,14.2463,4.695,16.3729-20.9268,0,0-15.5486-11.9892-23.4093-2.45C2331.2,258.975,2324.3134,279.87,2338.2359,282.3522Z"/><path class="cls-3" d="M2190.68,93.2s-.96-41.28,44.48-40.64,45.8437,36.8008,45.76,41.28c-.0958,5.127,1.4452,39.0471-45.76,42.56C2235.16,136.4,2192.6,139.28,2190.68,93.2Z"/><ellipse class="cls-7" cx="2253.08" cy="91" rx="5.44" ry="0.5"/><ellipse class="cls-7" cx="2226.4921" cy="91" rx="6.08" ry="0.5"/><path class="cls-3" d="M2239.32,98.32s3.84-.64,4.48,4.48c.7188,5.7507-4.48,5.12-4.48,5.12"/><path class="cls-7" d="M2211.16,78.48s12.8-16,8.96-24.32a51.4318,51.4318,0,0,0-17.28,9.6S2211.16,65.04,2211.16,78.48Z"/><path class="cls-7" d="M2234.2,77.84s-1.28-11.52-14.72-23.04c3.84-.64,17.2833-3.9682,28.8-.64C2248.28,54.16,2245.08,72.72,2234.2,77.84Z"/><path d="M2267.16,62.16c.64,5.76-8.96,14.08-8.96,14.08s-1.92-16-12.16-22.4C2252.3331,54.7629,2262.1305,58.124,2267.16,62.16Z"/><path class="cls-8" d="M2149.2561,463.37c-7.4306-6.0011-4.2709-22.2144,7.0645-36.25l-4.0022.8811S2131.0832,459.3878,2149.2561,463.37Z"/><path class="cls-8" d="M2321.48,474.64c-9.5147,1.3933-15.5772-11.3222-12.8-27.52l-2.24,1.6C2305.2851,448.3587,2301.502,482.2965,2321.48,474.64Z"/><path class="cls-64" d="M2228.12,119.8441a8.8483,8.8483,0,0,0,8.16,6.24c6.72.48,9.12-6.24,9.12-6.24S2231.48,120.8041,2228.12,119.8441Z"/><rect class="cls-10" x="2100" width="300" height="500"/><path class="cls-65" d="M210.5,731.5c-9-6-43.4069-62.82-40-60,5.8668,4.8559-13,23-13,23,19.0532,23.0292,29.7812,49.3732,42,58C199.5,752.5,203.5,740.5,210.5,731.5Z"/><path class="cls-66" d="M185.5,626.5l5.5981,164.46s.5112,5.12-2.5558,5.12S107.7781,798,107.7781,798s-7.6675,1.28-8.1787-10.88L97.5,680.5s37,45,53,60l11-11s-63-58-63-70v-33c-1.88-5.7878-15.89-101.2972,50-97C194.5,532.5,183.5,578.5,185.5,626.5Z"/><path class="cls-67" d="M190.5,783.5c-3.8729,0-17.9206,4.5267-33.9654.37,0,0-2.7664-.6927-3.8729-4.849C155.5,778.5,164.0792,759.7313,164.28,743c0,0,5.22,3.5,25.22-.5Z"/><path class="cls-3" d="M176.5,761.5s6.873-9.8051-11.2466-28.8463c0,0-16.45-2.0849-17.929,15.4271C147.3244,748.0808,167.1924,772.3917,176.5,761.5Z"/><path class="cls-68" d="M188.5423,796.08s1.9577.3,1.9577,5.42.71,117.46-3.38,149.46c0,0-10.2233-11.52-20.4466-1.92-2.0392.0512-8.4121-122-16.1738-122.54-11.3055-.7865-20.5674,116.6569-22.8535,118.06,0,0-13.8014-10.24-22.4912,5.12,0,0-5.0447-104.96-1.9777-148.48,0,0,.1509-3.1226,2.3757-3.1613S188.5423,796.08,188.5423,796.08Z"/><path class="cls-69" d="M118.4456,980.4s13.29-2.56,9.2009-35.84c0,0-13.8014-10.24-22.4912,5.12C105.1553,949.68,107.2,981.68,118.4456,980.4Z"/><path class="cls-70" d="M174.8525,975.92s11.7568.64,12.2679-24.96c0,0-10.2233-11.52-20.4466-1.92C166.6738,949.04,163.0956,975.28,174.8525,975.92Z"/><path class="cls-3" d="M221.5,758.5s7-9-11.1565-26.8809c0,0-11.1738,7.2017-12.666,19.172C197.6775,750.7911,214.7506,770.111,221.5,758.5Z"/><path class="cls-3" d="M116.8227,577.2s-.2382-38.1725,30.5261-40.64c38.1512-3.06,41.1729,32.939,41.5483,41.28.6883,15.294.5749,40.62-36.5483,42.56C152.3488,620.4,118.3562,623.28,116.8227,577.2Z"/><ellipse class="cls-7" cx="183.797" cy="573.9185" rx="1.297" ry="4.4815"/><ellipse class="cls-7" cx="164.4258" cy="574.32" rx="1.7596" ry="6.08"/><path class="cls-3" d="M174.6713,582.32s4.067-.64,4.5782,4.48c.5741,5.7507-4.5782,5.12-4.5782,5.12"/><path class="cls-7" d="M134.18,562.48s11.387-16.66,8.32-24.98c-6,1-12.2935,6.0322-15,9C127.5,546.5,134.18,549.04,134.18,562.48Z"/><path class="cls-7" d="M158.5,560.5s-7-20-20-22c3-2,15.8016-3.3282,25,0C163.5,538.5,167.5,554.5,158.5,560.5Z"/><path d="M180,549c.5112,5.76-4,12-4,12-.142-2.9684-10.1846-17.8941-16-24C165,537,176,544,180,549Z"/><path class="cls-8" d="M121.0014,979.12c-7.6286,0-13.8015-14.5987-13.8015-32.64l-2.0446,3.2S107.7111,987.44,121.0014,979.12Z"/><path class="cls-8" d="M178.9418,974.64c-7.5994,1.3933-12.4415-11.3222-10.2233-27.52l-1.7891,1.6C166.007,948.3587,162.9854,982.2965,178.9418,974.64Z"/><path class="cls-71" d="M163.7259,603.8441s1.15,5.76,6.5174,6.24,7.2841-6.24,7.2841-6.24S167.5,604.5,163.7259,603.8441Z"/><rect class="cls-10" y="500" width="300" height="500"/><path class="cls-72" d="M99.5,626.5s-5.9294,10.0826-8,36c-2.1663,27.1147,54.8809,89.82,58,88a53.8379,53.8379,0,0,1,18-16c.7377,3.3887-51.3264-62.2877-51-76C116.7249,649.05,99.5,638.5,99.5,626.5Z"/><polygon class="cls-73" points="121 661 99 645 99 623 121 661"/><path class="cls-74" d="M518.5,727.5c-9-6-51.4069-58.82-48-56,5.8668,4.8559-13,23-13,23,19.0532,23.0292,37.7812,45.3732,50,54C507.5,748.5,511.5,736.5,518.5,727.5Z"/><path class="cls-75" d="M485.5,626.5l5.5981,164.46s.5112,5.12-2.5558,5.12S407.7781,798,407.7781,798s-7.6675,1.28-8.1787-10.88L397.5,680.5s1-6,17,9l-6-6s-10-12-10-24v-33c-1.88-5.7878-15.89-101.2972,50-97C494.5,532.5,483.5,578.5,485.5,626.5Z"/><path class="cls-76" d="M490.5,783.5c-3.8729,0-17.9206,4.5267-33.9654.37,0,0-2.7664-.6927-3.8729-4.849C455.5,778.5,464.0792,759.7313,464.28,743c0,0,5.22,3.5,25.22-.5Z"/><path class="cls-3" d="M494.5,752.5s5-8-13.2466-23.8463c0,0-14.2747.3343-15.7534,17.8463C465.5,746.5,486.5,765.5,494.5,752.5Z"/><path class="cls-77" d="M488.5423,796.08s1.9577.3,1.9577,5.42,17.71,118.46,13.62,150.46c0,0-9.62-9.46-20.4466-1.92C482.5,925.5,468.5,824.5,450.5,826.5c-5.4035.6-10.4612,31.38-16.5946,60.278C427.2539,918.1166,420.6893,949.77,419.5,950.5c0,0-15.31-16.36-24-1,3.1108-9.4673,7.9707-37.2066,9.6032-68.62,1.68-32.3351.06-68.3841-1.9256-79.68,0,0,.1509-3.1226,2.3757-3.1613S488.5423,796.08,488.5423,796.08Z"/><path class="cls-78" d="M396.632,979.479s13.2289,2.8607,22.5273-29.3545c0,0-8.6761-14.8346-22.6964-4.1167C396.4629,946.0078,385.7861,976.2433,396.632,979.479Z"/><path class="cls-79" d="M498.6366,974.8853s11.56-2.2374,5.8319-27.1936c0,0-12.7173-8.689-20.3,3.1084C484.1685,950.8,487.0769,977.1228,498.6366,974.8853Z"/><path class="cls-3" d="M529.5,754.5s7-9-11.1565-26.8809c0,0-11.1738,7.2017-12.666,19.172C505.6775,746.7911,522.7506,766.111,529.5,754.5Z"/><path class="cls-3" d="M416.8227,577.2s-.2382-38.1725,30.5261-40.64c38.1512-3.06,41.1729,32.939,41.5483,41.28.6883,15.294.5749,40.62-36.5483,42.56C452.3488,620.4,418.3562,623.28,416.8227,577.2Z"/><circle class="cls-7" cx="483.5" cy="574.5" r="2"/><path class="cls-7" d="M466.5,574.5a2,2,0,0,1-4,0c0-2,1.2541-2.0164,2-2C465.3009,572.5176,466.5,572.5,466.5,574.5Z"/><path class="cls-3" d="M474.6713,582.32s4.067-.64,4.5782,4.48c.5741,5.7507-4.5782,5.12-4.5782,5.12"/><path class="cls-7" d="M434.18,562.48s11.387-16.66,8.32-24.98c-6,1-12.2935,6.0322-15,9C427.5,546.5,434.18,549.04,434.18,562.48Z"/><path class="cls-7" d="M458.5,560.5s-7-20-20-22c3-2,15.8016-3.3282,25,0C463.5,538.5,467.5,554.5,458.5,560.5Z"/><path d="M480,549c.5112,5.76-4,12-4,12-.142-2.9684-10.1846-17.8941-16-24C465,537,476,544,480,549Z"/><path class="cls-8" d="M399.4852,979.3046c-7.0167-2.9936-6.9656-18.8437.1141-35.4378l-3.1364,2.141S383.996,981.7419,399.4852,979.3046Z"/><path class="cls-8" d="M502.2921,972.65c-7.0327,3.199-14.8208-7.9579-16.6071-24.209l-1.3464,1.987C483.356,950.3014,488.6758,983.9555,502.2921,972.65Z"/><path class="cls-80" d="M467.5,603.5s-1,4,4,4,4-4,4-4A28.6115,28.6115,0,0,1,467.5,603.5Z"/><rect class="cls-10" x="300" y="500" width="300" height="500"/><path class="cls-81" d="M399.5,626.5s-8.7745,11.9917-8,36c1,31,70.8809,85.82,74,84,4.4517-6.49,9-15,16-18-8-7-63-55-65-70C415.2506,649.13,395.5,637.5,399.5,626.5Z"/><path class="cls-73" d="M417,657l-11-10-8-14,2-13C409.1217,633.215,413.8006,646.7159,417,657Z"/><path class="cls-82" d="M825.5,708.5c-9-6-34-25-47-38-5.3852-5.3852-17,22-17,22,19.0532,23.0292,40.7812,27.3732,53,36A83.8932,83.8932,0,0,1,825.5,708.5Z"/><path class="cls-83" d="M703.5,658.5c0-12,3-33,3-33-1.88-5.7878-15.89-101.2972,50-97,46,3,35,49,37,97l1.5981,163.46s-3.4888,7.12-6.5558,7.12S707.7781,798,707.7781,798s-7.6675,1.28-8.1787-10.88L701.5,678.5Z"/><path class="cls-84" d="M794.5,781.5c-3.8729,0-17.9206,4.5267-33.9654.37,0,0-2.7664-.6927-3.8729-4.849C759.5,776.5,768.0792,757.7313,768.28,741c0,0,5.22,3.5,25.22-.5Z"/><path class="cls-3" d="M822.6653,756.1412s6.8648-12.0413-16.4-24.2733c0,0-16.2511,3.2956-12.0411,20.3582C794.2239,752.2261,817.338,769.4409,822.6653,756.1412Z"/><path class="cls-85" d="M788.5423,796.08s1.9577.3,1.9577,5.42c0,2.9969,14.9136,42.2944,16,82,.77,28.1287-11,62-14,73,0,0-9-12-19.8262-4.46-.5368-11.2225,8.3868-39.0462,5.8262-65.54-3.0386-31.44-18.453-62.3351-28-60-5.2514,1.2844-28.3708,120.6315-37,122,0,0-14.31-14.36-23,1,6.3129-19.2125,16.5927-126.0294,12.6776-148.3,0,0,.1509-3.1226,2.3757-3.1613S788.5423,796.08,788.5423,796.08Z"/><path class="cls-86" d="M696.8865,981.2537s13.5224.5744,17.2193-32.7515c0,0-11.0676-13.1471-23.0658-.2056C691.04,948.2966,685.6488,979.9054,696.8865,981.2537Z"/><path class="cls-87" d="M774.0846,978s11.2269,3.5481,18.0982-21.1178c0,0-7.0319-13.7033-19.3241-6.9522C772.8587,949.93,762.8577,974.4519,774.0846,978Z"/><path class="cls-3" d="M838.91,729.0553s4.4457-10.4993-17.7037-23.1c0,0-9.3478,9.5943-7.7065,21.545C813.5,727.5,835.3792,742.0131,838.91,729.0553Z"/><path class="cls-3" d="M724.8227,576.2s-.2382-38.1725,30.5261-40.64c38.1512-3.06,41.1729,32.939,41.5483,41.28.6883,15.294.6029,42.66-36.5483,42.56C760.3488,619.4,726.3562,622.28,724.8227,576.2Z"/><path class="cls-7" d="M790.5,571.5a2.8745,2.8745,0,0,1,3,2c0,.5742-1-1-3-1-1.9839,0-3,1.5742-3,1A2.8745,2.8745,0,0,1,790.5,571.5Z"/><path class="cls-7" d="M771.4229,570.8506c2.804,0,4.0771,1.8379,4.0771,2.6494s-1.196-1-4-1-4,1.8115-4,1S768.6189,570.8506,771.4229,570.8506Z"/><path class="cls-3" d="M782.6713,581.32s4.067-.64,4.5782,4.48c.5741,5.7507-4.5782,5.12-4.5782,5.12"/><path class="cls-7" d="M742.18,561.48s11.387-16.66,8.32-24.98c-6,1-12.2935,6.0322-15,9C735.5,545.5,742.18,548.04,742.18,561.48Z"/><path class="cls-7" d="M766.5,559.5s-7-20-20-22c3-2,15.8016-3.3282,25,0C771.5,537.5,775.5,553.5,766.5,559.5Z"/><path d="M788,548c.5112,5.76-4,12-4,12-.142-2.9684-10.1846-17.8941-16-24C773,536,784,543,788,548Z"/><path class="cls-8" d="M699.6686,980.5977c-7.4228-1.76-10.0622-17.3884-5.901-34.9432l-2.7276,2.6421S684.8177,985.628,699.6686,980.5977Z"/><path class="cls-8" d="M778.3639,977.7788c-7.7069-.5434-9.2294-14.0641-3.0467-29.199l-2.1313,1.104C772.3826,949.1041,761.0033,981.22,778.3639,977.7788Z"/><rect class="cls-10" x="600" y="500" width="300" height="500"/><path class="cls-88" d="M707.5,625.5s-10,14-8,36c2.783,30.6129,89.0283,91.8318,95,91,2-8,4-16,12-21-8.5779-3.1091-80-54-82-77C723.6811,645.0825,707.5,637.5,707.5,625.5Z"/><path class="cls-73" d="M726,657l-19-13V622C717.5834,634.712,725.3986,645.8219,726,657Z"/><ellipse class="cls-89" cx="782" cy="602" rx="3.5" ry="1.5"/><path class="cls-90" d="M87.32,1181.88s-.22-3.7-1.82-3.38c-.9923.1985-.8069.1642-1.38,2.74-5.62,25.26,3.2022,89.8882,2.38,86.26a26.2225,26.2225,0,0,0-14.98-4.7c-8.96,0-14.08,4.48-14.08,4.48-1.94-15.78-6.75-65.0331-4.94-97.78,0,0,3.46-39.18,28.42-37.9,0,0,4.48-.64,3.84-5.12-.55-3.8538-13.44-108.16,56.32-104.96s58.88,62.08,56.96,101.12c0,0,.64,1.92,3.84,3.2,9.1207,3.6483,26.981,3.8345,28.16,29.44,1.6614,36.0807-3.2,68.48,22.4,101.12,0,0-16,4.48-19.84,16.64,0,0-30.72-11.28-30.72-109.2.0333-.7833-.5657-1.92-1.28-1.92-1.28,0-.64,1.92-.64,4.48l4.48,124.56s.64,5.12-3.2,5.12S100.12,1298,100.12,1298s-9.6,1.28-10.24-10.88S87.32,1181.88,87.32,1181.88Z"/><path class="cls-91" d="M99.9743,1278.0213c2.5257-1.5213,14.2951-19.29,14.547-36.0213,0,0,27.7088,5.5417,69.9645,0,0,0,.6928,26.3233,7.62,36.0213,0,0,0,4.849-4.849,4.849s-62.3446,4.1564-82.4334,0A7.053,7.053,0,0,1,99.9743,1278.0213Z"/><path class="cls-3" d="M74.5,1294.5s11,1,12-27c0,0-11.78-11.1-29.06-.22C57.44,1267.28,56.58,1295.14,74.5,1294.5Z"/><path class="cls-92" d="M198.24,1297.08s5.12.64,5.12,5.76-2.52,117.12-7.64,149.12c0,0-12.8-11.52-25.6-1.92,0,0,12.3951-123.6587-14.96-127.08-35.66-4.46-26.92,122.6-26.92,122.6s-17.28-10.24-28.16,5.12c0,0-9.56-105.96-5.72-149.48,0,0,.189-3.1226,2.9745-3.1613S198.24,1297.08,198.24,1297.08Z"/><path class="cls-93" d="M116.72,1481.4s16.64-2.56,11.52-35.84c0,0-17.28-10.24-28.16,5.12C100.08,1450.68,102.64,1482.68,116.72,1481.4Z"/><path class="cls-94" d="M180.36,1476.92s14.72.64,15.36-24.96c0,0-12.8-11.52-25.6-1.92C170.12,1450.04,165.64,1476.28,180.36,1476.92Z"/><path class="cls-3" d="M257.88,1284.88s12.16-8.96-5.76-28.8c0,0-15.36,5.12-19.84,16.64C232.28,1272.72,247,1295.12,257.88,1284.88Z"/><path class="cls-3" d="M102.68,1081.2s-.96-41.28,44.48-40.64,45.8437,36.8008,45.76,41.28c-.0958,5.127,1.4452,39.0471-45.76,42.56C147.16,1124.4,104.6,1127.28,102.68,1081.2Z"/><path class="cls-7" d="M167.0512,1079.96c0,3.0044-.4625,2.54-1.5512,2.54s-2.3912.4644-2.3912-2.54.8825-5.44,1.9712-5.44S167.0512,1076.9556,167.0512,1079.96Z"/><path class="cls-7" d="M140.6952,1080.32c0,3.3579-.9785,3.18-2.1952,3.18s-2.211.1779-2.211-3.18.9864-6.08,2.2031-6.08S140.6952,1076.9621,140.6952,1080.32Z"/><path class="cls-3" d="M151.32,1086.32s3.84-.64,4.48,4.48c.7188,5.7507-4.48,5.12-4.48,5.12"/><path class="cls-7" d="M123.16,1066.48s12.8-16,8.96-24.32a51.4318,51.4318,0,0,0-17.28,9.6S123.16,1053.04,123.16,1066.48Z"/><path class="cls-7" d="M146.2,1065.84s-1.28-11.52-14.72-23.04c3.84-.64,17.2833-3.9682,28.8-.64C160.28,1042.16,157.08,1060.72,146.2,1065.84Z"/><path d="M179.16,1050.16c.64,5.76-8.96,14.08-8.96,14.08s-1.92-16-12.16-22.4C164.3331,1042.7629,174.1305,1046.124,179.16,1050.16Z"/><path class="cls-8" d="M119.92,1480.12c-9.5513,0-17.28-14.5987-17.28-32.64l-2.56,3.2S103.28,1488.44,119.92,1480.12Z"/><path class="cls-8" d="M185.48,1475.64c-9.5147,1.3933-15.5772-11.3222-12.8-27.52l-2.24,1.6C169.2851,1449.3587,165.502,1483.2965,185.48,1475.64Z"/><path class="cls-95" d="M140.5,1111.5c0,3,6,2,8,2,4,0,9,0,9-2C159.6618,1107.255,139.6574,1107.316,140.5,1111.5Z"/><rect class="cls-10" y="1000" width="300" height="500"/><path class="cls-96" d="M687.32,1181.88s-.22-3.7-1.82-3.38c-.9923.1985-.8069.1642-1.38,2.74-5.62,25.26,3.2022,89.8882,2.38,86.26a26.2225,26.2225,0,0,0-14.98-4.7c-8.96,0-14.08,4.48-14.08,4.48-1.94-15.78-6.75-65.0331-4.94-97.78,0,0,3.46-39.18,28.42-37.9,0,0,4.48-.64,3.84-5.12-.55-3.8538-13.44-108.16,56.32-104.96s58.88,62.08,56.96,101.12c0,0,.64,1.92,3.84,3.2,9.1207,3.6483,26.981,3.8345,28.16,29.44,1.6614,36.0807-3.2,68.48,22.4,101.12,0,0-16,4.48-19.84,16.64,0,0-30.72-11.28-30.72-109.2.0333-.7833-.5657-1.92-1.28-1.92-1.28,0-.64,1.92-.64,4.48l4.48,124.56s.64,5.12-3.2,5.12S700.12,1298,700.12,1298s-9.6,1.28-10.24-10.88S687.32,1181.88,687.32,1181.88Z"/><path class="cls-97" d="M699.9743,1278.0213c2.5257-1.5213,14.2951-19.29,14.547-36.0213,0,0,27.7088,5.5417,69.9645,0,0,0,.6928,26.3233,7.62,36.0213,0,0,0,4.849-4.849,4.849s-62.3446,4.1564-82.4334,0A7.053,7.053,0,0,1,699.9743,1278.0213Z"/><path class="cls-3" d="M674.5,1294.5s11,1,12-27c0,0-11.78-11.1-29.06-.22C657.44,1267.28,656.58,1295.14,674.5,1294.5Z"/><path class="cls-98" d="M798.24,1297.08s5.12.64,5.12,5.76-2.52,117.12-7.64,149.12c0,0-12.8-11.52-25.6-1.92,0,0,12.3951-123.6587-14.96-127.08-35.66-4.46-26.92,122.6-26.92,122.6s-17.28-10.24-28.16,5.12c0,0-9.56-105.96-5.72-149.48,0,0,.189-3.1226,2.9745-3.1613S798.24,1297.08,798.24,1297.08Z"/><path class="cls-99" d="M716.72,1481.4s16.64-2.56,11.52-35.84c0,0-17.28-10.24-28.16,5.12C700.08,1450.68,702.64,1482.68,716.72,1481.4Z"/><path class="cls-100" d="M780.36,1476.92s14.72.64,15.36-24.96c0,0-12.8-11.52-25.6-1.92C770.12,1450.04,765.64,1476.28,780.36,1476.92Z"/><path class="cls-3" d="M857.88,1284.88s12.16-8.96-5.76-28.8c0,0-15.36,5.12-19.84,16.64C832.28,1272.72,847,1295.12,857.88,1284.88Z"/><path class="cls-3" d="M702.68,1081.2s-.96-41.28,44.48-40.64,45.8437,36.8008,45.76,41.28c-.0958,5.127,1.4452,39.0471-45.76,42.56C747.16,1124.4,704.6,1127.28,702.68,1081.2Z"/><path class="cls-7" d="M767.0512,1079.96c0,3.0044-.4625,2.54-1.5512,2.54s-2.3912.4644-2.3912-2.54.8825-5.44,1.9712-5.44S767.0512,1076.9556,767.0512,1079.96Z"/><path class="cls-7" d="M740.6952,1080.32c0,3.3579-.9785,3.18-2.1952,3.18s-2.211.1779-2.211-3.18.9864-6.08,2.2031-6.08S740.6952,1076.9621,740.6952,1080.32Z"/><path class="cls-3" d="M751.32,1086.32s3.84-.64,4.48,4.48c.7188,5.7507-4.48,5.12-4.48,5.12"/><path class="cls-7" d="M723.16,1066.48s12.8-16,8.96-24.32a51.4318,51.4318,0,0,0-17.28,9.6S723.16,1053.04,723.16,1066.48Z"/><path class="cls-7" d="M746.2,1065.84s-1.28-11.52-14.72-23.04c3.84-.64,17.2833-3.9682,28.8-.64C760.28,1042.16,757.08,1060.72,746.2,1065.84Z"/><path d="M779.16,1050.16c.64,5.76-8.96,14.08-8.96,14.08s-1.92-16-12.16-22.4C764.3331,1042.7629,774.1305,1046.124,779.16,1050.16Z"/><path class="cls-8" d="M719.92,1480.12c-9.5512,0-17.28-14.5987-17.28-32.64l-2.56,3.2S703.28,1488.44,719.92,1480.12Z"/><path class="cls-8" d="M785.48,1475.64c-9.5147,1.3933-15.5772-11.3222-12.8-27.52l-2.24,1.6C769.2851,1449.3587,765.502,1483.2965,785.48,1475.64Z"/><path class="cls-101" d="M740.5,1111.5c0,3,6,2,8,2,4,0,9,0,9-2C759.6618,1107.255,739.6574,1107.316,740.5,1111.5Z"/><rect class="cls-10" x="600" y="1000" width="300" height="500"/><path class="cls-102" d="M1287.32,1181.88s-.22-3.7-1.82-3.38c-.9923.1985-.8069.1642-1.38,2.74-5.62,25.26,3.2022,89.8882,2.38,86.26a26.2225,26.2225,0,0,0-14.98-4.7c-8.96,0-14.08,4.48-14.08,4.48-1.94-15.78-6.75-65.0331-4.94-97.78,0,0,3.46-39.18,28.42-37.9,0,0,4.48-.64,3.84-5.12-.5505-3.8538-13.44-108.16,56.32-104.96s58.88,62.08,56.96,101.12c0,0,.64,1.92,3.84,3.2,9.1207,3.6483,26.981,3.8345,28.16,29.44,1.6614,36.0807-3.2,68.48,22.4,101.12,0,0-16,4.48-19.84,16.64,0,0-30.72-11.28-30.72-109.2.0333-.7833-.5657-1.92-1.28-1.92-1.28,0-.64,1.92-.64,4.48l4.48,124.56s.64,5.12-3.2,5.12-101.12,1.92-101.12,1.92-9.6,1.28-10.24-10.88S1287.32,1181.88,1287.32,1181.88Z"/><path class="cls-103" d="M1299.9743,1278.0213c2.5257-1.5213,14.2951-19.29,14.547-36.0213,0,0,27.7088,5.5417,69.9645,0,0,0,.6928,26.3233,7.62,36.0213,0,0,0,4.849-4.849,4.849s-62.3446,4.1564-82.4334,0A7.053,7.053,0,0,1,1299.9743,1278.0213Z"/><path class="cls-3" d="M1274.5,1294.5s11,1,12-27c0,0-11.78-11.1-29.06-.22C1257.44,1267.28,1256.58,1295.14,1274.5,1294.5Z"/><path class="cls-104" d="M1398.24,1297.08s5.12.64,5.12,5.76-2.52,117.12-7.64,149.12c0,0-12.8-11.52-25.6-1.92,0,0,12.3951-123.6587-14.96-127.08-35.66-4.46-26.92,122.6-26.92,122.6s-17.28-10.24-28.16,5.12c0,0-9.56-105.96-5.72-149.48,0,0,.189-3.1226,2.9745-3.1613S1398.24,1297.08,1398.24,1297.08Z"/><path class="cls-105" d="M1316.72,1481.4s16.64-2.56,11.52-35.84c0,0-17.28-10.24-28.16,5.12C1300.08,1450.68,1302.64,1482.68,1316.72,1481.4Z"/><path class="cls-106" d="M1380.36,1476.92s14.72.64,15.36-24.96c0,0-12.8-11.52-25.6-1.92C1370.12,1450.04,1365.64,1476.28,1380.36,1476.92Z"/><path class="cls-3" d="M1457.88,1284.88s12.16-8.96-5.76-28.8c0,0-15.36,5.12-19.84,16.64C1432.28,1272.72,1447,1295.12,1457.88,1284.88Z"/><path class="cls-3" d="M1302.68,1081.2s-.96-41.28,44.48-40.64,45.8437,36.8008,45.76,41.28c-.0958,5.127,1.4452,39.0471-45.76,42.56C1347.16,1124.4,1304.6,1127.28,1302.68,1081.2Z"/><path class="cls-7" d="M1367.0512,1079.96c0,3.0044-.4625,2.54-1.5512,2.54s-2.3912.4644-2.3912-2.54.8825-5.44,1.9712-5.44S1367.0512,1076.9556,1367.0512,1079.96Z"/><path class="cls-7" d="M1340.6952,1080.32c0,3.3579-.9785,3.18-2.1952,3.18s-2.211.1779-2.211-3.18.9864-6.08,2.2031-6.08S1340.6952,1076.9621,1340.6952,1080.32Z"/><path class="cls-3" d="M1351.32,1086.32s3.84-.64,4.48,4.48c.7188,5.7507-4.48,5.12-4.48,5.12"/><path class="cls-7" d="M1323.16,1066.48s12.8-16,8.96-24.32a51.4318,51.4318,0,0,0-17.28,9.6S1323.16,1053.04,1323.16,1066.48Z"/><path class="cls-7" d="M1346.2,1065.84s-1.28-11.52-14.72-23.04c3.84-.64,17.2833-3.9682,28.8-.64C1360.28,1042.16,1357.08,1060.72,1346.2,1065.84Z"/><path d="M1379.16,1050.16c.64,5.76-8.96,14.08-8.96,14.08s-1.92-16-12.16-22.4C1364.3331,1042.7629,1374.1305,1046.124,1379.16,1050.16Z"/><path class="cls-8" d="M1319.92,1480.12c-9.5513,0-17.28-14.5987-17.28-32.64l-2.56,3.2S1303.28,1488.44,1319.92,1480.12Z"/><path class="cls-8" d="M1385.48,1475.64c-9.5147,1.3933-15.5772-11.3222-12.8-27.52l-2.24,1.6C1369.2851,1449.3587,1365.502,1483.2965,1385.48,1475.64Z"/><path class="cls-107" d="M1340.5,1111.5c0,3,6,2,8,2,4,0,9,0,9-2C1359.6618,1107.255,1339.6574,1107.316,1340.5,1111.5Z"/><rect class="cls-10" x="1200" y="1000" width="300" height="500"/><path class="cls-108" d="M2187.32,1181.88s-.22-3.7-1.82-3.38c-.9923.1985-.8069.1642-1.38,2.74-5.62,25.26,3.2022,89.8882,2.38,86.26a26.2225,26.2225,0,0,0-14.98-4.7c-8.96,0-14.08,4.48-14.08,4.48-1.94-15.78-6.75-65.0331-4.94-97.78,0,0,3.46-39.18,28.42-37.9,0,0,4.48-.64,3.84-5.12-.5505-3.8538-13.44-108.16,56.32-104.96s58.88,62.08,56.96,101.12c0,0,.64,1.92,3.84,3.2,9.1207,3.6483,26.981,3.8345,28.16,29.44,1.6614,36.0807-3.2,68.48,22.4,101.12,0,0-16,4.48-19.84,16.64,0,0-30.72-11.28-30.72-109.2.0333-.7833-.5657-1.92-1.28-1.92-1.28,0-.64,1.92-.64,4.48l4.48,124.56s.64,5.12-3.2,5.12-101.12,1.92-101.12,1.92-9.6,1.28-10.24-10.88S2187.32,1181.88,2187.32,1181.88Z"/><path class="cls-109" d="M2199.9743,1278.0213c2.5257-1.5213,14.2951-19.29,14.547-36.0213,0,0,27.7088,5.5417,69.9645,0,0,0,.6928,26.3233,7.62,36.0213,0,0,0,4.849-4.849,4.849s-62.3446,4.1564-82.4334,0A7.053,7.053,0,0,1,2199.9743,1278.0213Z"/><path class="cls-3" d="M2174.5,1294.5s11,1,12-27c0,0-11.78-11.1-29.06-.22C2157.44,1267.28,2156.58,1295.14,2174.5,1294.5Z"/><path class="cls-110" d="M2298.24,1297.08s5.12.64,5.12,5.76-2.52,117.12-7.64,149.12c0,0-12.8-11.52-25.6-1.92,0,0,12.3951-123.6587-14.96-127.08-35.66-4.46-26.92,122.6-26.92,122.6s-17.28-10.24-28.16,5.12c0,0-9.56-105.96-5.72-149.48,0,0,.189-3.1226,2.9745-3.1613S2298.24,1297.08,2298.24,1297.08Z"/><path class="cls-111" d="M2216.72,1481.4s16.64-2.56,11.52-35.84c0,0-17.28-10.24-28.16,5.12C2200.08,1450.68,2202.64,1482.68,2216.72,1481.4Z"/><path class="cls-112" d="M2280.36,1476.92s14.72.64,15.36-24.96c0,0-12.8-11.52-25.6-1.92C2270.12,1450.04,2265.64,1476.28,2280.36,1476.92Z"/><path class="cls-3" d="M2357.88,1284.88s12.16-8.96-5.76-28.8c0,0-15.36,5.12-19.84,16.64C2332.28,1272.72,2347,1295.12,2357.88,1284.88Z"/><path class="cls-3" d="M2202.68,1081.2s-.96-41.28,44.48-40.64,45.8437,36.8008,45.76,41.28c-.0958,5.127,1.4452,39.0471-45.76,42.56C2247.16,1124.4,2204.6,1127.28,2202.68,1081.2Z"/><path class="cls-7" d="M2267.0512,1079.96c0,3.0044-.4625,2.54-1.5512,2.54s-2.3912.4644-2.3912-2.54.8825-5.44,1.9712-5.44S2267.0512,1076.9556,2267.0512,1079.96Z"/><path class="cls-7" d="M2240.6952,1080.32c0,3.3579-.9785,3.18-2.1952,3.18s-2.211.1779-2.211-3.18.9864-6.08,2.2031-6.08S2240.6952,1076.9621,2240.6952,1080.32Z"/><path class="cls-3" d="M2251.32,1086.32s3.84-.64,4.48,4.48c.7188,5.7507-4.48,5.12-4.48,5.12"/><path class="cls-7" d="M2223.16,1066.48s12.8-16,8.96-24.32a51.4318,51.4318,0,0,0-17.28,9.6S2223.16,1053.04,2223.16,1066.48Z"/><path class="cls-7" d="M2246.2,1065.84s-1.28-11.52-14.72-23.04c3.84-.64,17.2833-3.9682,28.8-.64C2260.28,1042.16,2257.08,1060.72,2246.2,1065.84Z"/><path d="M2279.16,1050.16c.64,5.76-8.96,14.08-8.96,14.08s-1.92-16-12.16-22.4C2264.3331,1042.7629,2274.1305,1046.124,2279.16,1050.16Z"/><path class="cls-8" d="M2219.92,1480.12c-9.5513,0-17.28-14.5987-17.28-32.64l-2.56,3.2S2203.28,1488.44,2219.92,1480.12Z"/><path class="cls-8" d="M2285.48,1475.64c-9.5147,1.3933-15.5772-11.3222-12.8-27.52l-2.24,1.6C2269.2851,1449.3587,2265.502,1483.2965,2285.48,1475.64Z"/><path class="cls-113" d="M2240.5,1111.5c0,3,6,2,8,2,4,0,9,0,9-2C2259.6618,1107.255,2239.6574,1107.316,2240.5,1111.5Z"/><rect class="cls-10" x="2100" y="1000" width="300" height="500"/><path class="cls-114" d="M1887.32,1181.88s-.22-3.7-1.82-3.38c-.9923.1985-.8069.1642-1.38,2.74-5.62,25.26,3.2022,89.8882,2.38,86.26a26.2225,26.2225,0,0,0-14.98-4.7c-8.96,0-14.08,4.48-14.08,4.48-1.94-15.78-6.75-65.0331-4.94-97.78,0,0,3.46-39.18,28.42-37.9,0,0,4.48-.64,3.84-5.12-.5505-3.8538-13.44-108.16,56.32-104.96s58.88,62.08,56.96,101.12c0,0,.64,1.92,3.84,3.2,9.1207,3.6483,26.981,3.8345,28.16,29.44,1.6614,36.0807-3.2,68.48,22.4,101.12,0,0-16,4.48-19.84,16.64,0,0-30.72-11.28-30.72-109.2.0333-.7833-.5657-1.92-1.28-1.92-1.28,0-.64,1.92-.64,4.48l4.48,124.56s.64,5.12-3.2,5.12-101.12,1.92-101.12,1.92-9.6,1.28-10.24-10.88S1887.32,1181.88,1887.32,1181.88Z"/><path class="cls-115" d="M1899.9743,1278.0213c2.5257-1.5213,14.2951-19.29,14.547-36.0213,0,0,27.7088,5.5417,69.9645,0,0,0,.6928,26.3233,7.62,36.0213,0,0,0,4.849-4.849,4.849s-62.3446,4.1564-82.4334,0A7.053,7.053,0,0,1,1899.9743,1278.0213Z"/><path class="cls-3" d="M1874.5,1294.5s11,1,12-27c0,0-11.78-11.1-29.06-.22C1857.44,1267.28,1856.58,1295.14,1874.5,1294.5Z"/><path class="cls-116" d="M1998.24,1297.08s5.12.64,5.12,5.76-2.52,117.12-7.64,149.12c0,0-12.8-11.52-25.6-1.92,0,0,12.3951-123.6587-14.96-127.08-35.66-4.46-26.92,122.6-26.92,122.6s-17.28-10.24-28.16,5.12c0,0-9.56-105.96-5.72-149.48,0,0,.189-3.1226,2.9745-3.1613S1998.24,1297.08,1998.24,1297.08Z"/><path class="cls-117" d="M1916.72,1481.4s16.64-2.56,11.52-35.84c0,0-17.28-10.24-28.16,5.12C1900.08,1450.68,1902.64,1482.68,1916.72,1481.4Z"/><path class="cls-118" d="M1980.36,1476.92s14.72.64,15.36-24.96c0,0-12.8-11.52-25.6-1.92C1970.12,1450.04,1965.64,1476.28,1980.36,1476.92Z"/><path class="cls-3" d="M2057.88,1284.88s12.16-8.96-5.76-28.8c0,0-15.36,5.12-19.84,16.64C2032.28,1272.72,2047,1295.12,2057.88,1284.88Z"/><path class="cls-3" d="M1902.68,1081.2s-.96-41.28,44.48-40.64,45.8437,36.8008,45.76,41.28c-.0958,5.127,1.4452,39.0471-45.76,42.56C1947.16,1124.4,1904.6,1127.28,1902.68,1081.2Z"/><path class="cls-7" d="M1967.0512,1079.96c0,3.0044-.4625,2.54-1.5512,2.54s-2.3912.4644-2.3912-2.54.8825-5.44,1.9712-5.44S1967.0512,1076.9556,1967.0512,1079.96Z"/><path class="cls-7" d="M1940.6952,1080.32c0,3.3579-.9785,3.18-2.1952,3.18s-2.211.1779-2.211-3.18.9864-6.08,2.2031-6.08S1940.6952,1076.9621,1940.6952,1080.32Z"/><path class="cls-3" d="M1951.32,1086.32s3.84-.64,4.48,4.48c.7188,5.7507-4.48,5.12-4.48,5.12"/><path class="cls-7" d="M1923.16,1066.48s12.8-16,8.96-24.32a51.4318,51.4318,0,0,0-17.28,9.6S1923.16,1053.04,1923.16,1066.48Z"/><path class="cls-7" d="M1946.2,1065.84s-1.28-11.52-14.72-23.04c3.84-.64,17.2833-3.9682,28.8-.64C1960.28,1042.16,1957.08,1060.72,1946.2,1065.84Z"/><path d="M1979.16,1050.16c.64,5.76-8.96,14.08-8.96,14.08s-1.92-16-12.16-22.4C1964.3331,1042.7629,1974.1305,1046.124,1979.16,1050.16Z"/><path class="cls-8" d="M1919.92,1480.12c-9.5512,0-17.28-14.5987-17.28-32.64l-2.56,3.2S1903.28,1488.44,1919.92,1480.12Z"/><path class="cls-8" d="M1985.48,1475.64c-9.5147,1.3933-15.5772-11.3222-12.8-27.52l-2.24,1.6C1969.2851,1449.3587,1965.502,1483.2965,1985.48,1475.64Z"/><path class="cls-119" d="M1940.5,1111.5c0,3,6,2,8,2,4,0,9,0,9-2C1959.6618,1107.255,1939.6574,1107.316,1940.5,1111.5Z"/><rect class="cls-10" x="1800" y="1000" width="300" height="500"/><path class="cls-120" d="M2787.32,1181.88s-.22-3.7-1.82-3.38c-.9923.1985-.8069.1642-1.38,2.74-5.62,25.26,3.2022,89.8882,2.38,86.26a26.2225,26.2225,0,0,0-14.98-4.7c-8.96,0-14.08,4.48-14.08,4.48-1.94-15.78-6.75-65.0331-4.94-97.78,0,0,3.46-39.18,28.42-37.9,0,0,4.48-.64,3.84-5.12-.5505-3.8538-13.44-108.16,56.32-104.96s58.88,62.08,56.96,101.12c0,0,.64,1.92,3.84,3.2,9.1207,3.6483,26.981,3.8345,28.16,29.44,1.6614,36.0807-3.2,68.48,22.4,101.12,0,0-16,4.48-19.84,16.64,0,0-30.72-11.28-30.72-109.2.0333-.7833-.5657-1.92-1.28-1.92-1.28,0-.64,1.92-.64,4.48l4.48,124.56s.64,5.12-3.2,5.12-101.12,1.92-101.12,1.92-9.6,1.28-10.24-10.88S2787.32,1181.88,2787.32,1181.88Z"/><path class="cls-121" d="M2799.9743,1278.0213c2.5257-1.5213,14.2951-19.29,14.547-36.0213,0,0,27.7088,5.5417,69.9645,0,0,0,.6928,26.3233,7.62,36.0213,0,0,0,4.849-4.849,4.849s-62.3446,4.1564-82.4334,0A7.053,7.053,0,0,1,2799.9743,1278.0213Z"/><path class="cls-3" d="M2774.5,1294.5s11,1,12-27c0,0-11.78-11.1-29.06-.22C2757.44,1267.28,2756.58,1295.14,2774.5,1294.5Z"/><path class="cls-122" d="M2898.24,1297.08s5.12.64,5.12,5.76-2.52,117.12-7.64,149.12c0,0-12.8-11.52-25.6-1.92,0,0,12.3951-123.6587-14.96-127.08-35.66-4.46-26.92,122.6-26.92,122.6s-17.28-10.24-28.16,5.12c0,0-9.56-105.96-5.72-149.48,0,0,.189-3.1226,2.9745-3.1613S2898.24,1297.08,2898.24,1297.08Z"/><path class="cls-123" d="M2816.72,1481.4s16.64-2.56,11.52-35.84c0,0-17.28-10.24-28.16,5.12C2800.08,1450.68,2802.64,1482.68,2816.72,1481.4Z"/><path class="cls-124" d="M2880.36,1476.92s14.72.64,15.36-24.96c0,0-12.8-11.52-25.6-1.92C2870.12,1450.04,2865.64,1476.28,2880.36,1476.92Z"/><path class="cls-3" d="M2957.88,1284.88s12.16-8.96-5.76-28.8c0,0-15.36,5.12-19.84,16.64C2932.28,1272.72,2947,1295.12,2957.88,1284.88Z"/><path class="cls-3" d="M2802.68,1081.2s-.96-41.28,44.48-40.64,45.8437,36.8008,45.76,41.28c-.0958,5.127,1.4452,39.0471-45.76,42.56C2847.16,1124.4,2804.6,1127.28,2802.68,1081.2Z"/><path class="cls-7" d="M2867.0512,1079.96c0,3.0044-.4625,2.54-1.5512,2.54s-2.3912.4644-2.3912-2.54.8825-5.44,1.9712-5.44S2867.0512,1076.9556,2867.0512,1079.96Z"/><path class="cls-7" d="M2840.6952,1080.32c0,3.3579-.9785,3.18-2.1952,3.18s-2.211.1779-2.211-3.18.9864-6.08,2.2031-6.08S2840.6952,1076.9621,2840.6952,1080.32Z"/><path class="cls-3" d="M2851.32,1086.32s3.84-.64,4.48,4.48c.7188,5.7507-4.48,5.12-4.48,5.12"/><path class="cls-7" d="M2823.16,1066.48s12.8-16,8.96-24.32a51.4318,51.4318,0,0,0-17.28,9.6S2823.16,1053.04,2823.16,1066.48Z"/><path class="cls-7" d="M2846.2,1065.84s-1.28-11.52-14.72-23.04c3.84-.64,17.2833-3.9682,28.8-.64C2860.28,1042.16,2857.08,1060.72,2846.2,1065.84Z"/><path d="M2879.16,1050.16c.64,5.76-8.96,14.08-8.96,14.08s-1.92-16-12.16-22.4C2864.3331,1042.7629,2874.1305,1046.124,2879.16,1050.16Z"/><path class="cls-8" d="M2819.92,1480.12c-9.5513,0-17.28-14.5987-17.28-32.64l-2.56,3.2S2803.28,1488.44,2819.92,1480.12Z"/><path class="cls-8" d="M2885.48,1475.64c-9.5147,1.3933-15.5772-11.3222-12.8-27.52l-2.24,1.6C2869.2851,1449.3587,2865.502,1483.2965,2885.48,1475.64Z"/><path class="cls-125" d="M2840.5,1111.5c0,3,6,2,8,2,4,0,9,0,9-2C2859.6618,1107.255,2839.6574,1107.316,2840.5,1111.5Z"/><rect class="cls-10" x="2700" y="1000" width="300" height="500"/><path class="cls-126" d="M1587.32,1181.88s-.22-3.7-1.82-3.38c-.9923.1985-.8069.1642-1.38,2.74-5.62,25.26,3.2022,89.8882,2.38,86.26a26.2225,26.2225,0,0,0-14.98-4.7c-8.96,0-14.08,4.48-14.08,4.48-1.94-15.78-6.75-68.0331-4.94-100.78,0,0,3.04-37.28,28-36,0,0,4.9-2.54,4.26-7.02-.5505-3.8538-13.44-105.16,56.32-101.96s58.88,58.08,56.96,97.12c0,0,.26,4.58,3.46,5.86,9.1207,3.6483,27.361,1.1745,28.54,26.78,1.6614,36.0807-3.2,72.48,22.4,105.12,0,0-16,4.48-19.84,16.64,0,0-30.72-11.28-30.72-109.2.0333-.7833-.5657-1.92-1.28-1.92-1.28,0-.64,1.92-.64,4.48l4.48,124.56s.64,5.12-3.2,5.12-101.12,1.92-101.12,1.92-9.6,1.28-10.24-10.88S1587.32,1181.88,1587.32,1181.88Z"/><path class="cls-127" d="M1599.9743,1278.0213c2.5257-1.5213,14.2951-19.29,14.547-36.0213,0,0,27.7088,5.5417,69.9645,0,0,0,.6928,26.3233,7.62,36.0213,0,0,0,4.849-4.849,4.849s-62.3446,4.1564-82.4334,0A7.053,7.053,0,0,1,1599.9743,1278.0213Z"/><path class="cls-3" d="M1574.5,1294.5s11,1,12-27c0,0-11.78-11.1-29.06-.22C1557.44,1267.28,1556.58,1295.14,1574.5,1294.5Z"/><path class="cls-128" d="M1698.24,1297.08s5.12.64,5.12,5.76-2.52,117.12-7.64,149.12c0,0-12.8-11.52-25.6-1.92,0,0,12.3951-123.6587-14.96-127.08-35.66-4.46-26.92,122.6-26.92,122.6s-17.28-10.24-28.16,5.12c0,0-9.56-105.96-5.72-149.48,0,0,.189-3.1226,2.9745-3.1613S1698.24,1297.08,1698.24,1297.08Z"/><path class="cls-129" d="M1616.72,1481.4s16.64-2.56,11.52-35.84c0,0-17.28-10.24-28.16,5.12C1600.08,1450.68,1602.64,1482.68,1616.72,1481.4Z"/><path class="cls-130" d="M1680.36,1476.92s14.72.64,15.36-24.96c0,0-12.8-11.52-25.6-1.92C1670.12,1450.04,1665.64,1476.28,1680.36,1476.92Z"/><path class="cls-3" d="M1757.88,1284.88s12.16-8.96-5.76-28.8c0,0-15.36,5.12-19.84,16.64C1732.28,1272.72,1747,1295.12,1757.88,1284.88Z"/><path class="cls-3" d="M1602.68,1081.2s-.96-41.28,44.48-40.64,45.8437,36.8008,45.76,41.28c-.0958,5.127,1.4452,39.0471-45.76,42.56C1647.16,1124.4,1604.6,1127.28,1602.68,1081.2Z"/><path class="cls-7" d="M1667.0512,1079.96c-.5512,1.54.4488,3.54-1.5512,2.54-1.7889-.8944-3,1-2.3912-2.54.5092-2.961-1.6088-5.46,1.9712-5.44C1666.1686,1074.5261,1668.2269,1076.6751,1667.0512,1079.96Z"/><path class="cls-7" d="M1640.6953,1080.32c.8243,4.4571-.6243,2.9618-2.1953,3.18-2.2148.3076-1.5794-.0562-2.211-3.18-.78-3.8562,1.01-6.9214,3.211-6.82C1641.3249,1073.584,1640.1481,1077.3617,1640.6953,1080.32Z"/><path class="cls-3" d="M1651.32,1086.32s3.84-.64,4.48,4.48c.7188,5.7507-4.48,5.12-4.48,5.12"/><path class="cls-7" d="M1623.16,1066.48s12.8-16,8.96-24.32a51.4318,51.4318,0,0,0-17.28,9.6S1623.16,1053.04,1623.16,1066.48Z"/><path class="cls-7" d="M1646.2,1065.84s-1.28-11.52-14.72-23.04c3.84-.64,17.2833-3.9682,28.8-.64C1660.28,1042.16,1657.08,1060.72,1646.2,1065.84Z"/><path d="M1679.16,1050.16c.64,5.76-8.96,14.08-8.96,14.08s-1.92-16-12.16-22.4C1664.3331,1042.7629,1674.1305,1046.124,1679.16,1050.16Z"/><path class="cls-8" d="M1619.92,1480.12c-9.5512,0-17.28-14.5987-17.28-32.64l-2.56,3.2S1603.28,1488.44,1619.92,1480.12Z"/><path class="cls-8" d="M1685.48,1475.64c-9.5147,1.3933-15.5772-11.3222-12.8-27.52l-2.24,1.6C1669.2851,1449.3587,1665.502,1483.2965,1685.48,1475.64Z"/><path class="cls-131" d="M1640.5,1111.5c0,4,6,0,8,0,4,0,8,3,9,0C1659.6618,1107.255,1639.6574,1107.316,1640.5,1111.5Z"/><rect class="cls-10" x="1500" y="1000" width="300" height="500"/><path class="cls-132" d="M387.32,1181.88s-.22-3.7-1.82-3.38c-.9923.1985-.8069.1642-1.38,2.74-5.62,25.26,3.2022,89.8882,2.38,86.26a26.2225,26.2225,0,0,0-14.98-4.7c-8.96,0-14.08,4.48-14.08,4.48-1.94-15.78-6.75-68.0331-4.94-100.78,0,0,3.04-37.28,28-36,0,0,4.9-2.54,4.26-7.02-.55-3.8538-13.44-105.16,56.32-101.96s58.88,58.08,56.96,97.12c0,0,.26,4.58,3.46,5.86,9.1207,3.6483,27.361,1.1745,28.54,26.78,1.6614,36.0807-3.2,72.48,22.4,105.12,0,0-16,4.48-19.84,16.64,0,0-30.72-11.28-30.72-109.2.0333-.7833-.5657-1.92-1.28-1.92-1.28,0-.64,1.92-.64,4.48l4.48,124.56s.64,5.12-3.2,5.12S400.12,1298,400.12,1298s-9.6,1.28-10.24-10.88S387.32,1181.88,387.32,1181.88Z"/><path class="cls-133" d="M399.9743,1278.0213c2.5257-1.5213,14.2951-19.29,14.547-36.0213,0,0,27.7088,5.5417,69.9645,0,0,0,.6928,26.3233,7.62,36.0213,0,0,0,4.849-4.849,4.849s-62.3446,4.1564-82.4334,0A7.053,7.053,0,0,1,399.9743,1278.0213Z"/><path class="cls-3" d="M374.5,1294.5s11,1,12-27c0,0-11.78-11.1-29.06-.22C357.44,1267.28,356.58,1295.14,374.5,1294.5Z"/><path class="cls-134" d="M498.24,1297.08s5.12.64,5.12,5.76-2.52,117.12-7.64,149.12c0,0-12.8-11.52-25.6-1.92,0,0,12.3951-123.6587-14.96-127.08-35.66-4.46-26.92,122.6-26.92,122.6s-17.28-10.24-28.16,5.12c0,0-9.56-105.96-5.72-149.48,0,0,.189-3.1226,2.9745-3.1613S498.24,1297.08,498.24,1297.08Z"/><path class="cls-135" d="M416.72,1481.4s16.64-2.56,11.52-35.84c0,0-17.28-10.24-28.16,5.12C400.08,1450.68,402.64,1482.68,416.72,1481.4Z"/><path class="cls-136" d="M480.36,1476.92s14.72.64,15.36-24.96c0,0-12.8-11.52-25.6-1.92C470.12,1450.04,465.64,1476.28,480.36,1476.92Z"/><path class="cls-3" d="M557.88,1284.88s12.16-8.96-5.76-28.8c0,0-15.36,5.12-19.84,16.64C532.28,1272.72,547,1295.12,557.88,1284.88Z"/><path class="cls-3" d="M402.68,1081.2s-.96-41.28,44.48-40.64,45.8437,36.8008,45.76,41.28c-.0958,5.127,1.4452,39.0471-45.76,42.56C447.16,1124.4,404.6,1127.28,402.68,1081.2Z"/><path class="cls-7" d="M467.0512,1079.96c-.5512,1.54.4488,3.54-1.5512,2.54-1.7889-.8944-3,1-2.3912-2.54.5092-2.961-1.6088-5.46,1.9712-5.44C466.1686,1074.5261,468.2269,1076.6751,467.0512,1079.96Z"/><path class="cls-7" d="M440.6953,1080.32c.8243,4.4571-.6243,2.9618-2.1953,3.18-2.2148.3076-1.5794-.0562-2.211-3.18-.78-3.8562,1.01-6.9214,3.211-6.82C441.3249,1073.584,440.1481,1077.3617,440.6953,1080.32Z"/><path class="cls-3" d="M451.32,1086.32s3.84-.64,4.48,4.48c.7188,5.7507-4.48,5.12-4.48,5.12"/><path class="cls-7" d="M423.16,1066.48s12.8-16,8.96-24.32a51.4318,51.4318,0,0,0-17.28,9.6S423.16,1053.04,423.16,1066.48Z"/><path class="cls-7" d="M446.2,1065.84s-1.28-11.52-14.72-23.04c3.84-.64,17.2833-3.9682,28.8-.64C460.28,1042.16,457.08,1060.72,446.2,1065.84Z"/><path d="M479.16,1050.16c.64,5.76-8.96,14.08-8.96,14.08s-1.92-16-12.16-22.4C464.3331,1042.7629,474.1305,1046.124,479.16,1050.16Z"/><path class="cls-8" d="M419.92,1480.12c-9.5513,0-17.28-14.5987-17.28-32.64l-2.56,3.2S403.28,1488.44,419.92,1480.12Z"/><path class="cls-8" d="M485.48,1475.64c-9.5147,1.3933-15.5772-11.3222-12.8-27.52l-2.24,1.6C469.2851,1449.3587,465.502,1483.2965,485.48,1475.64Z"/><path class="cls-137" d="M440.5,1111.5c0,4,6,0,8,0,4,0,8,3,9,0C459.6618,1107.255,439.6574,1107.316,440.5,1111.5Z"/><rect class="cls-10" x="300" y="1000" width="300" height="500"/><path class="cls-138" d="M2487.32,1181.88s-.22-3.7-1.82-3.38c-.9923.1985-.8069.1642-1.38,2.74-5.62,25.26,3.2022,89.8882,2.38,86.26a26.2225,26.2225,0,0,0-14.98-4.7c-8.96,0-14.08,4.48-14.08,4.48-1.94-15.78-6.75-68.0331-4.94-100.78,0,0-.42-38.1,28-35,0,0,6-3,4.26-8.02-1.2749-3.6783-13.44-105.16,56.32-101.96s59.34,56.94,57.42,95.98c0,0-1.3663,6.5149,3,7,9,1,29,7,28.54,26.78-.84,36.1091-3.2,72.48,22.4,105.12,0,0-16,4.48-19.84,16.64,0,0-30.72-11.28-30.72-109.2.0333-.7833-.5657-1.92-1.28-1.92-1.28,0-.64,1.92-.64,4.48l4.48,124.56s.64,5.12-3.2,5.12-101.12,1.92-101.12,1.92-9.6,1.28-10.24-10.88S2487.32,1181.88,2487.32,1181.88Z"/><path class="cls-139" d="M2499.9743,1278.0213c2.5257-1.5213,14.2951-19.29,14.547-36.0213,0,0,27.7088,5.5417,69.9645,0,0,0,.6928,26.3233,7.62,36.0213,0,0,0,4.849-4.849,4.849s-62.3446,4.1564-82.4334,0A7.053,7.053,0,0,1,2499.9743,1278.0213Z"/><path class="cls-3" d="M2474.5,1294.5s11,1,12-27c0,0-11.78-11.1-29.06-.22C2457.44,1267.28,2456.58,1295.14,2474.5,1294.5Z"/><path class="cls-140" d="M2598.24,1297.08s5.12.64,5.12,5.76-2.52,117.12-7.64,149.12c0,0-12.8-11.52-25.6-1.92,0,0,12.3951-123.6587-14.96-127.08-35.66-4.46-26.92,122.6-26.92,122.6s-17.28-10.24-28.16,5.12c0,0-9.56-105.96-5.72-149.48,0,0,.189-3.1226,2.9745-3.1613S2598.24,1297.08,2598.24,1297.08Z"/><path class="cls-141" d="M2516.72,1481.4s16.64-2.56,11.52-35.84c0,0-17.28-10.24-28.16,5.12C2500.08,1450.68,2502.64,1482.68,2516.72,1481.4Z"/><path class="cls-142" d="M2580.36,1476.92s14.72.64,15.36-24.96c0,0-12.8-11.52-25.6-1.92C2570.12,1450.04,2565.64,1476.28,2580.36,1476.92Z"/><path class="cls-3" d="M2657.88,1284.88s12.16-8.96-5.76-28.8c0,0-15.36,5.12-19.84,16.64C2632.28,1272.72,2647,1295.12,2657.88,1284.88Z"/><path class="cls-3" d="M2502.68,1081.2s-.96-41.28,44.48-40.64,45.8437,36.8008,45.76,41.28c-.0958,5.127,1.4452,39.0471-45.76,42.56C2545.775,1124.4491,2504.49,1127.2839,2502.68,1081.2Z"/><path class="cls-7" d="M2568.5,1079.5c-.5512,1.54,0,5-3,4-1.8974-.6325-3,0-2.3912-3.54.5092-2.961-1.1888-5.48,2.3912-5.46A3.7153,3.7153,0,0,1,2568.5,1079.5Z"/><path class="cls-7" d="M2541.5,1080.5c.8244,4.4571-1.429,2.7818-3,3-2.2148.3076-2.3684.1238-3-3-.78-3.8562,1.7986-7.1014,4-7C2541.3249,1073.584,2540.9529,1077.5417,2541.5,1080.5Z"/><path class="cls-3" d="M2551.32,1086.32s3.84-.64,4.48,4.48c.7188,5.7507-4.48,5.12-4.48,5.12"/><path class="cls-7" d="M2523.16,1066.48s12.8-16,8.96-24.32a51.4318,51.4318,0,0,0-17.28,9.6S2523.16,1053.04,2523.16,1066.48Z"/><path class="cls-7" d="M2546.2,1065.84s-1.28-11.52-14.72-23.04c3.84-.64,17.2833-3.9682,28.8-.64C2560.28,1042.16,2557.08,1060.72,2546.2,1065.84Z"/><path d="M2579.16,1050.16c.64,5.76-8.96,14.08-8.96,14.08s-1.92-16-12.16-22.4C2564.3331,1042.7629,2574.1305,1046.124,2579.16,1050.16Z"/><path class="cls-8" d="M2519.92,1480.12c-9.5512,0-17.28-14.5987-17.28-32.64l-2.56,3.2S2503.28,1488.44,2519.92,1480.12Z"/><path class="cls-8" d="M2585.48,1475.64c-9.5147,1.3933-15.5772-11.3222-12.8-27.52l-2.24,1.6C2569.2851,1449.3587,2565.502,1483.2965,2585.48,1475.64Z"/><path class="cls-143" d="M2540.5,1111.5c0,2,3,1,8,0,3.9223-.7845,8,2,9,0C2559.5176,1107.8212,2540.5073,1107.2166,2540.5,1111.5Z"/><rect class="cls-10" x="2400" y="1000" width="300" height="500"/><path class="cls-144" d="M987.32,1181.88s-.22-3.7-1.82-3.38c-.9923.1985-.8069.1642-1.38,2.74-5.62,25.26,3.2022,89.8882,2.38,86.26a26.2225,26.2225,0,0,0-14.98-4.7c-8.96,0-14.08,4.48-14.08,4.48-1.94-15.78-6.75-68.0331-4.94-100.78,0,0-.42-38.1,28-35,0,0,6-3,4.26-8.02-1.2749-3.6783-13.44-105.16,56.32-101.96s59.34,56.94,57.42,95.98c0,0-1.3663,6.5149,3,7,9,1,29,7,28.54,26.78-.84,36.1091-3.2,72.48,22.4,105.12,0,0-16,4.48-19.84,16.64,0,0-30.72-11.28-30.72-109.2.0333-.7833-.5657-1.92-1.28-1.92-1.28,0-.64,1.92-.64,4.48l4.48,124.56s.64,5.12-3.2,5.12-101.12,1.92-101.12,1.92-9.6,1.28-10.24-10.88S987.32,1181.88,987.32,1181.88Z"/><path class="cls-145" d="M999.9743,1278.0213c2.5257-1.5213,14.2951-19.29,14.547-36.0213,0,0,27.7088,5.5417,69.9645,0,0,0,.6928,26.3233,7.62,36.0213,0,0,0,4.849-4.849,4.849s-62.3446,4.1564-82.4334,0A7.053,7.053,0,0,1,999.9743,1278.0213Z"/><path class="cls-3" d="M974.5,1294.5s11,1,12-27c0,0-11.78-11.1-29.06-.22C957.44,1267.28,956.58,1295.14,974.5,1294.5Z"/><path class="cls-146" d="M1098.24,1297.08s5.12.64,5.12,5.76-2.52,117.12-7.64,149.12c0,0-12.8-11.52-25.6-1.92,0,0,12.3951-123.6587-14.96-127.08-35.66-4.46-26.92,122.6-26.92,122.6s-17.28-10.24-28.16,5.12c0,0-9.56-105.96-5.72-149.48,0,0,.189-3.1226,2.9745-3.1613S1098.24,1297.08,1098.24,1297.08Z"/><path class="cls-147" d="M1016.72,1481.4s16.64-2.56,11.52-35.84c0,0-17.28-10.24-28.16,5.12C1000.08,1450.68,1002.64,1482.68,1016.72,1481.4Z"/><path class="cls-148" d="M1080.36,1476.92s14.72.64,15.36-24.96c0,0-12.8-11.52-25.6-1.92C1070.12,1450.04,1065.64,1476.28,1080.36,1476.92Z"/><path class="cls-3" d="M1157.88,1284.88s12.16-8.96-5.76-28.8c0,0-15.36,5.12-19.84,16.64C1132.28,1272.72,1147,1295.12,1157.88,1284.88Z"/><path class="cls-3" d="M1002.68,1081.2s-.96-41.28,44.48-40.64,45.8437,36.8008,45.76,41.28c-.0958,5.127,1.4452,39.0471-45.76,42.56C1045.775,1124.4491,1004.49,1127.2839,1002.68,1081.2Z"/><path class="cls-7" d="M1068.5,1079.5c-.5512,1.54,0,5-3,4-1.8974-.6325-3,0-2.3912-3.54.5092-2.961-1.1888-5.48,2.3912-5.46A3.7153,3.7153,0,0,1,1068.5,1079.5Z"/><path class="cls-7" d="M1041.5,1080.5c.8244,4.4571-1.429,2.7818-3,3-2.2148.3076-2.3684.1238-3-3-.78-3.8562,1.7986-7.1014,4-7C1041.3249,1073.584,1040.9529,1077.5417,1041.5,1080.5Z"/><path class="cls-3" d="M1051.32,1086.32s3.84-.64,4.48,4.48c.7188,5.7507-4.48,5.12-4.48,5.12"/><path class="cls-7" d="M1023.16,1066.48s12.8-16,8.96-24.32a51.4318,51.4318,0,0,0-17.28,9.6S1023.16,1053.04,1023.16,1066.48Z"/><path class="cls-7" d="M1046.2,1065.84s-1.28-11.52-14.72-23.04c3.84-.64,17.2833-3.9682,28.8-.64C1060.28,1042.16,1057.08,1060.72,1046.2,1065.84Z"/><path d="M1079.16,1050.16c.64,5.76-8.96,14.08-8.96,14.08s-1.92-16-12.16-22.4C1064.3331,1042.7629,1074.1305,1046.124,1079.16,1050.16Z"/><path class="cls-8" d="M1019.92,1480.12c-9.5513,0-17.28-14.5987-17.28-32.64l-2.56,3.2S1003.28,1488.44,1019.92,1480.12Z"/><path class="cls-8" d="M1085.48,1475.64c-9.5147,1.3933-15.5772-11.3222-12.8-27.52l-2.24,1.6C1069.2851,1449.3587,1065.502,1483.2965,1085.48,1475.64Z"/><path class="cls-149" d="M1040.5,1111.5c0,2,3,1,8,0,3.9223-.7845,8,2,9,0C1059.5176,1107.8212,1040.5073,1107.2166,1040.5,1111.5Z"/><rect class="cls-10" x="900" y="1000" width="300" height="500"/></g></g></svg>
