<svg xmlns="http://www.w3.org/2000/svg" xmlns:xlink="http://www.w3.org/1999/xlink" width="1226.4003" height="791.1671" viewBox="0 0 1226.4003 791.1671"><defs><style>.cls-1{stroke:#000;stroke-miterlimit:10;stroke-width:7px;fill:url(#radial-gradient);}.cls-2,.cls-7{font-size:250px;font-family:SignPainter-HouseScriptSemibold, SignPainter;font-weight:700;}.cls-3{letter-spacing:-0.03em;}.cls-4{letter-spacing:-0.02em;}.cls-5{letter-spacing:-0.04em;}.cls-6{letter-spacing:-0.07em;}.cls-7{fill:#f4c80f;}</style><radialGradient id="radial-gradient" cx="613.9641" cy="398.3016" r="503.0795" gradientUnits="userSpaceOnUse"><stop offset="0.0252" stop-color="#fffdaa"/><stop offset="0.3461" stop-color="#fffac4"/><stop offset="0.514" stop-color="#fff9d4"/><stop offset="0.6076" stop-color="#fff8cf"/><stop offset="0.7225" stop-color="#fff4c0"/><stop offset="0.8484" stop-color="#ffefa7"/><stop offset="0.9814" stop-color="#ffe784"/><stop offset="1" stop-color="#ffe67f"/></radialGradient></defs><title>flash</title><g id="Layer_2" data-name="Layer 2"><g id="Layer_1-2" data-name="Layer 1"><path class="cls-1" d="M81.9641,148.3016s127,116,174,74c64.9064-58.0015,27-184,27-184s98.4812,134.7037,187,117c80-16,117-144,117-144s37,102,154,100,155-53,155-53,6,104,78,113,137-23,137-23-58,85-21,150,121,68,121,68-98,43-95,106,71,94,71,94-101-13-121,50,8,105,8,105-72-70-144-45-82,98-82,98-30-104-100-89-101,89-101,89-17-104-96-86-84,97-84,97-3-119-95-127-153,90-153,90,71-126,26-187-162,47-162,47,82-112,47-170-113-59-113-59,92-38.3692,92-91C108.9641,240.3016,81.9641,148.3016,81.9641,148.3016Z"/><text class="cls-2" transform="translate(360.6916 474.4031)"><tspan class="cls-3">F</tspan><tspan class="cls-4" x="83.2485" y="0">L</tspan><tspan x="166.5" y="0">A</tspan><tspan class="cls-5" x="276.9966" y="0">S</tspan><tspan class="cls-6" x="377.9946" y="0">H</tspan><tspan x="482.4946" y="0">!</tspan></text><text class="cls-7" transform="translate(371.6916 468.4031)"><tspan class="cls-3">F</tspan><tspan class="cls-4" x="83.2485" y="0">L</tspan><tspan x="166.5" y="0">A</tspan><tspan class="cls-5" x="276.9966" y="0">S</tspan><tspan class="cls-6" x="377.9946" y="0">H</tspan><tspan x="482.4946" y="0">!</tspan></text></g></g></svg>
