<svg xmlns="http://www.w3.org/2000/svg" xmlns:xlink="http://www.w3.org/1999/xlink" width="224" height="224" viewBox="0 0 224 224"><defs><style>.cls-1{fill:url(#linear-gradient);}.cls-2{fill:#fff;}</style><linearGradient id="linear-gradient" x1="212.5381" y1="11.4619" x2="11.4619" y2="212.5381" gradientUnits="userSpaceOnUse"><stop offset="0" stop-color="#e900d0"/><stop offset="0.0725" stop-color="#e500d0"/><stop offset="0.1412" stop-color="#da00d0"/><stop offset="0.2084" stop-color="#c700d1"/><stop offset="0.2748" stop-color="#ac00d1"/><stop offset="0.3405" stop-color="#8900d2"/><stop offset="0.4057" stop-color="#5e00d2"/><stop offset="0.4693" stop-color="#2d00d3"/><stop offset="0.5104" stop-color="#0900d4"/><stop offset="0.5385" stop-color="#1005cd"/><stop offset="0.5809" stop-color="#2512b9"/><stop offset="0.6322" stop-color="#472799"/><stop offset="0.6906" stop-color="#76456d"/><stop offset="0.7539" stop-color="#b16b35"/><stop offset="0.8075" stop-color="#e98f00"/><stop offset="0.9245" stop-color="#ffe82a"/></linearGradient></defs><title>insta</title><g id="Layer_2" data-name="Layer 2"><g id="Layer_1-2" data-name="Layer 1"><rect class="cls-1" width="224" height="224" rx="39.0193" ry="39.0193"/><path class="cls-2" d="M165.0681,37A27.6621,27.6621,0,0,1,192.699,64.6309v94.043a27.6622,27.6622,0,0,1-27.6309,27.6309H57.9318a27.6622,27.6622,0,0,1-27.6309-27.6309V64.6309A27.6622,27.6622,0,0,1,57.9318,37H165.0681m0-11H57.9318A38.7445,38.7445,0,0,0,19.3009,64.6309v94.043a38.7445,38.7445,0,0,0,38.6309,38.6309H165.0681a38.7446,38.7446,0,0,0,38.631-38.6309V64.6309A38.7446,38.7446,0,0,0,165.0681,26Z"/><path class="cls-2" d="M167,61a9,9,0,1,0,9,9,9,9,0,0,0-9-9Z"/><path class="cls-2" d="M111,80a32,32,0,1,1-32,32,32.0363,32.0363,0,0,1,32-32m0-11a43,43,0,1,0,43,43,43,43,0,0,0-43-43Z"/></g></g></svg>
