<svg xmlns="http://www.w3.org/2000/svg" xmlns:xlink="http://www.w3.org/1999/xlink" width="229.8723" height="95" viewBox="0 0 229.8723 95"><defs><style>.cls-1{fill:url(#linear-gradient);}.cls-2{font-size:50px;font-family:FilsonSoftRegular, Filson Soft;letter-spacing:-0.019em;}.cls-3{letter-spacing:-0.031em;}</style><linearGradient id="linear-gradient" x1="114.9361" y1="91.5" x2="114.9361" y2="3.5" gradientUnits="userSpaceOnUse"><stop offset="0" stop-color="#f4912c"/><stop offset="1" stop-color="#8acce6"/></linearGradient></defs><title>ja</title><g id="Layer_2" data-name="Layer 2"><g id="Layer_1-2" data-name="Layer 1"><rect class="cls-1" x="3.5001" y="3.5" width="222.8721" height="88" rx="37.3579" ry="37.3579"/><path d="M189.0143,7a33.8964,33.8964,0,0,1,33.858,33.858V54.142A33.8964,33.8964,0,0,1,189.0143,88H40.858A33.8963,33.8963,0,0,1,7,54.142V40.858A33.8963,33.8963,0,0,1,40.858,7H189.0143m0-7H40.858A40.9781,40.9781,0,0,0,0,40.858V54.142A40.9781,40.9781,0,0,0,40.858,95H189.0143a40.9781,40.9781,0,0,0,40.858-40.858V40.858A40.9781,40.9781,0,0,0,189.0143,0Z"/><text class="cls-2" transform="translate(81.8696 65.1494)">J<tspan class="cls-3" x="32.2495" y="0">A</tspan></text></g></g></svg>
