<svg xmlns="http://www.w3.org/2000/svg" xmlns:xlink="http://www.w3.org/1999/xlink" width="229.8723" height="95" viewBox="0 0 229.8723 95"><defs><style>.cls-1{fill:url(#linear-gradient);}.cls-2{font-size:50px;font-family:FilsonSoftRegular, Filson Soft;}.cls-3{letter-spacing:-0.009em;}</style><linearGradient id="linear-gradient" x1="114.9364" y1="91.5" x2="114.9364" y2="3.5" gradientUnits="userSpaceOnUse"><stop offset="0" stop-color="#f4912c"/><stop offset="1" stop-color="#8acce6"/></linearGradient></defs><title>nej</title><g id="Layer_2" data-name="Layer 2"><g id="Layer_1-2" data-name="Layer 1"><path class="cls-1" d="M40.858,3.5H189.0147a37.3579,37.3579,0,0,1,37.3579,37.3579V54.1416A37.3584,37.3584,0,0,1,189.0143,91.5H40.858A37.3579,37.3579,0,0,1,3.5,54.1421V40.8579A37.3579,37.3579,0,0,1,40.858,3.5Z"/><path d="M189.0143,7a33.8964,33.8964,0,0,1,33.858,33.858V54.142A33.8964,33.8964,0,0,1,189.0143,88H40.858A33.8963,33.8963,0,0,1,7,54.142V40.858A33.8963,33.8963,0,0,1,40.858,7H189.0143m0-7H40.858A40.9781,40.9781,0,0,0,0,40.858V54.142A40.9781,40.9781,0,0,0,40.858,95H189.0143a40.9781,40.9781,0,0,0,40.858-40.858V40.858A40.9781,40.9781,0,0,0,189.0143,0Z"/><text class="cls-2" transform="translate(63.8696 65.1494)">N<tspan class="cls-3" x="37.6494" y="0">E</tspan><tspan x="66.8496" y="0">J</tspan></text></g></g></svg>
