<svg xmlns="http://www.w3.org/2000/svg" width="234" height="234" viewBox="0 0 234 234"><defs><style>.cls-1{fill:#f6ff09;}.cls-2{fill:#f9f9f4;stroke:#000;stroke-miterlimit:10;}</style></defs><title>snap</title><g id="Layer_2" data-name="Layer 2"><g id="Layer_1-2" data-name="Layer 1"><rect class="cls-1" width="234" height="234" rx="27.5227" ry="27.5227"/><path class="cls-2" d="M118.5,23.5S60.5592,21.85,62.5261,73.51c1.48,38.8706-15.9991,37.982-17.2289,37.6883-1.4856-.3686-13.2648-5.1351-15.0753,2.1536-1.8863,7.5939,12.0554,12.8447,15.0753,13.9985,0,0,15.0753,2.1536,13.9985,13.9985s-1.0768,38.7651-16.1521,47.38-3.23,12.9217-3.23,12.9217,8.1415,3.3934,15.0753-2.1536c10.7681-8.6145,11.8449,0,8.6145,4.3072,0,0-4.3073,8.6145,9.6912,0s22.613-2.1536,22.613-2.1536,11.8449,12.9217,21.5361,11.8449H118.52c9.7.9946,21.1091-11.5261,21.1091-11.5261s8.5593-6.5337,22.63,1.9617,9.6909-.0822,9.6909-.0822c-3.2668-4.28-2.2631-12.903,8.5777-4.38,6.9806,5.4881,15.093,2.0257,15.093,2.0257s11.8079-4.4075-3.34-12.8938-15.3762-35.4055-16.5534-47.2409,13.8792-14.1167,13.8792-14.1167c3.01-1.1793,16.9067-6.5482,14.956-14.1259-1.8723-7.273-13.6106-2.4067-15.093-2.0256-1.2272.3042-18.6982,1.341-17.548-37.5408C173.4509,21.8749,117.5,23.5,117.5,23.5Z"/></g></g></svg>
