<svg xmlns="http://www.w3.org/2000/svg" xmlns:xlink="http://www.w3.org/1999/xlink" width="663" height="274" viewBox="0 0 663 274"><defs><style>.cls-1{fill:url(#linear-gradient);}.cls-2{font-size:90px;font-family:OpenSans, Open Sans;}</style><linearGradient id="linear-gradient" x1="3.5" y1="137" x2="659.5" y2="137" gradientUnits="userSpaceOnUse"><stop offset="0" stop-color="#f4912c"/><stop offset="1" stop-color="#8acce6"/></linearGradient></defs><title>startknap</title><g id="Layer_2" data-name="Layer 2"><g id="Layer_1-2" data-name="Layer 1"><path class="cls-1" d="M40.8579,3.5H622.1421A37.3579,37.3579,0,0,1,659.5,40.8579V233.1421A37.3579,37.3579,0,0,1,622.1421,270.5H40.8584A37.3584,37.3584,0,0,1,3.5,233.1416V40.8579A37.3579,37.3579,0,0,1,40.8579,3.5Z"/><path d="M622.142,7A33.8963,33.8963,0,0,1,656,40.858V233.142A33.8963,33.8963,0,0,1,622.142,267H40.858A33.8963,33.8963,0,0,1,7,233.142V40.858A33.8963,33.8963,0,0,1,40.858,7H622.142m0-7H40.858A40.9781,40.9781,0,0,0,0,40.858V233.142A40.9781,40.9781,0,0,0,40.858,274H622.142A40.9781,40.9781,0,0,0,663,233.142V40.858A40.9781,40.9781,0,0,0,622.142,0Z"/><text class="cls-2" transform="translate(197.6295 163.5038)">START</text></g></g></svg>
